<?xml version="1.0" standalone="no"?>
<!DOCTYPE svg PUBLIC "-//W3C//DTD SVG 1.1//EN" "http://www.w3.org/Graphics/SVG/1.1/DTD/svg11.dtd" >
<svg xmlns="http://www.w3.org/2000/svg">
<metadata></metadata>
<defs>
<font id="museo_sans700" horiz-adv-x="1280" >
<font-face units-per-em="2048" ascent="1536" descent="-512" />
<missing-glyph horiz-adv-x="497" />
<glyph unicode="&#xfb01;" horiz-adv-x="1257" d="M68 838v206h129v31q0 129 46 205t112.5 117t139 53t128.5 12q20 0 35.5 -1t27.5 -3t25 -2v-221q-6 0 -15 2q-8 0 -18 1t-21 1q-29 0 -63.5 -5t-65 -22.5t-51 -51.5t-20.5 -91v-25h657v-1044h-260v838h-397v-838h-260v838h-129zM854 1223v231h258v-231h-258z" />
<glyph unicode="&#xfb02;" horiz-adv-x="1292" d="M68 821v207h129v47q0 129 46 205t112.5 117t139 53t128.5 12q20 0 35.5 -1t27.5 -3t25 -2v-221q-6 0 -15 2q-8 0 -18 1t-21 1q-29 0 -63.5 -5t-65 -22.5t-51 -51.5t-20.5 -91v-41h223v-207h-223v-821h-260v821h-129zM840 326v1128h258v-1089q0 -86 27.5 -115t78.5 -29h27 q6 0 12 2v-227l-24 -4q-10 -2 -25.5 -2h-32.5q-53 0 -110.5 10t-104.5 45t-76.5 101.5t-29.5 179.5z" />
<glyph unicode="&#xfb03;" horiz-adv-x="1968" d="M68 838v206h129v31q0 129 46 205t112.5 117t139 53t128.5 12q20 0 35.5 -1t27.5 -3t25 -2v-221q-6 0 -15 2q-8 0 -18 1t-21 1q-29 0 -63.5 -5t-65 -22.5t-51 -51.5t-20.5 -91v-25h450v31q0 129 46 205t113 117t139.5 53t127.5 12q20 0 35.5 -1t28.5 -3q12 -2 24 -2v-221 q-6 0 -14 2q-8 0 -18.5 1t-20.5 1q-29 0 -63.5 -5t-65.5 -22.5t-51.5 -51.5t-20.5 -91v-25h658v-1044h-260v838h-398v-838h-260v838h-450v-838h-260v838h-129zM1565 1223v231h258v-231h-258z" />
<glyph unicode="&#xfb04;" horiz-adv-x="2002" d="M68 838v206h129v31q0 129 46 205t112.5 117t139 53t128.5 12q20 0 35.5 -1t27.5 -3t25 -2v-221q-6 0 -15 2q-8 0 -18 1t-21 1q-29 0 -63.5 -5t-65 -22.5t-51 -51.5t-20.5 -91v-25h450v31q0 129 46 205t113 117t139.5 53t127.5 12q20 0 35.5 -1t28.5 -3q12 -2 24 -2v-221 q-6 0 -14 2q-8 0 -18.5 1t-20.5 1q-29 0 -63.5 -5t-65.5 -22.5t-51.5 -51.5t-20.5 -91v-25h224v-206h-224v-838h-260v838h-450v-838h-260v838h-129zM1550 326v1128h258v-1089q0 -86 28 -115t79 -29h27q6 0 12 2v-227q-12 -2 -25 -4q-10 -2 -25.5 -2h-31.5q-53 0 -110.5 10 t-104.5 45t-77 101.5t-30 179.5z" />
<glyph horiz-adv-x="2048" />
<glyph horiz-adv-x="2048" />
<glyph unicode="&#xd;" horiz-adv-x="497" />
<glyph unicode=" "  horiz-adv-x="497" />
<glyph unicode="&#x09;" horiz-adv-x="497" />
<glyph unicode="&#xa0;" horiz-adv-x="497" />
<glyph unicode="!" horiz-adv-x="671" d="M201 1454h270l-20 -1034h-228zM211 0v242h252v-242h-252z" />
<glyph unicode="&#x22;" horiz-adv-x="749" d="M115 1053v428h192v-428h-192zM442 1053v428h193v-428h-193z" />
<glyph unicode="#" horiz-adv-x="1445" d="M74 383l30 186h244l51 287h-239l30 188h242l72 410h209l-72 -410h279l71 410h209l-72 -410h248l-33 -188h-245l-51 -287h243l-30 -186h-246l-66 -383h-209l68 383h-281l-65 -383h-209l65 383h-243zM557 569h281l51 287h-281z" />
<glyph unicode="$" horiz-adv-x="1167" d="M92 174l144 199q47 -43 104 -78q49 -29 114.5 -52.5t143.5 -23.5q41 0 79 11.5t67.5 33t47 54t17.5 77.5q0 61 -51 103.5t-128 79t-167 74.5t-167 91.5t-128 128t-51 185.5q0 80 28.5 148.5t78.5 122.5t121 90t157 50v193h176v-188q90 -8 155.5 -32t112.5 -50 q53 -31 92 -68l-114 -215q-41 35 -93 63q-43 23 -102 43.5t-127 20.5q-92 0 -155.5 -48t-63.5 -126q0 -61 51 -101t128 -76t166 -73t166 -89t128 -129t51 -192q0 -78 -26.5 -148.5t-77.5 -126.5t-124 -94t-167 -50v-189h-176v189q-100 10 -175 41.5t-128 66.5 q-61 39 -107 84z" />
<glyph unicode="%" horiz-adv-x="1622" d="M78 1155q0 66 26.5 125t71.5 103t105.5 70t130.5 26t130 -26t106 -70t73 -103t27 -125q0 -68 -27 -127t-73 -102t-106 -69t-130 -26t-130.5 26t-105.5 69t-71.5 102t-26.5 127zM129 0l1116 1454h240l-1116 -1454h-240zM276 1155q0 -57 39.5 -96t96.5 -39t97 39t40 96 q0 55 -40 95t-97 40t-96.5 -40t-39.5 -95zM872 297q0 66 26 125t71 103t106.5 70t130.5 26q70 0 130.5 -26t105.5 -70t71.5 -103.5t26.5 -124.5q0 -68 -26.5 -126t-71.5 -101t-105.5 -69t-130.5 -26t-131 26t-106 69t-71 101t-26 126zM1071 299q0 -57 39 -96t96 -39t97 39 t40 96q0 55 -39.5 95t-97.5 40q-57 0 -96 -40t-39 -95z" />
<glyph unicode="&#x26;" horiz-adv-x="1406" d="M92 412q0 59 17.5 115.5t49 104.5t78 85t103.5 57v4q-53 23 -92 66q-35 37 -63.5 98.5t-28.5 153.5q0 96 35.5 167.5t98 120t146.5 72t178 23.5q35 0 68 -4.5t61 -8.5q33 -6 62 -12l-64 -209q-14 2 -30 6q-14 2 -31.5 4t-34.5 2q-92 0 -157.5 -49t-65.5 -145 q0 -31 10 -65.5t35 -62.5t68 -46.5t108 -18.5h231v189h261v-189h188v-229h-188v-172q0 -111 -36 -202t-102.5 -155.5t-164 -100.5t-220.5 -36q-119 0 -215 34t-163.5 92.5t-104.5 138.5t-37 172zM362 428q0 -88 69 -149.5t181 -61.5q123 0 192.5 66.5t69.5 199.5v158h-245 q-123 0 -195 -53.5t-72 -159.5z" />
<glyph unicode="'" horiz-adv-x="425" d="M115 1053v428h196v-428h-196z" />
<glyph unicode="(" horiz-adv-x="634" d="M133 702q0 223 63.5 426t180.5 390h219q-113 -190 -172 -395t-59 -423q0 -229 57 -455.5t174 -439.5h-219q-115 186 -179.5 415t-64.5 482z" />
<glyph unicode=")" horiz-adv-x="634" d="M39 -195q115 213 173 439.5t58 455.5q0 217 -59 422t-172 396h219q117 -186 180.5 -389t63.5 -427q0 -254 -64.5 -482t-179.5 -415h-219z" />
<glyph unicode="*" horiz-adv-x="944" d="M55 1065l70 221l248 -100l-19 268h236l-19 -268l248 100l74 -219l-262 -66v-4l172 -202l-187 -138l-141 226h-4l-141 -226l-187 136l170 204v4z" />
<glyph unicode="+" horiz-adv-x="1296" d="M100 483v203h443v485h211v-485h442v-203h-442v-483h-211v483h-443z" />
<glyph unicode="," horiz-adv-x="542" d="M35 -215l137 479h256l-197 -479h-196z" />
<glyph unicode="-" horiz-adv-x="935" d="M160 471v227h616v-227h-616z" />
<glyph unicode="." horiz-adv-x="526" d="M133 0v260h260v-260h-260z" />
<glyph unicode="/" horiz-adv-x="839" d="M55 -86l520 1614h224l-523 -1614h-221z" />
<glyph unicode="0" horiz-adv-x="1288" d="M117 729q0 156 26.5 293t88 238.5t162 160t249.5 58.5q150 0 251 -58.5t162.5 -160t88 -238.5t26.5 -293q0 -158 -26.5 -295t-88 -238.5t-162.5 -161t-251 -59.5t-250 59.5t-161.5 161t-88 238.5t-26.5 295zM387 729q0 -109 12.5 -202t41 -161.5t78.5 -108.5t124 -40 t124 40t78.5 108.5t41 162t12.5 201.5q0 106 -12.5 198.5t-41 161t-78.5 107.5t-124 39t-124 -39t-78.5 -107.5t-41 -160.5t-12.5 -199z" />
<glyph unicode="1" horiz-adv-x="1048" d="M88 1104l365 350h231v-1227h315v-227h-888v227h315v807v68q0 16 2 31h-4q-6 -10 -14 -23q-8 -10 -20.5 -26.5t-29.5 -32.5l-116 -111z" />
<glyph unicode="2" horiz-adv-x="1187" d="M102 129q0 131 50.5 228.5t126 173t163.5 135t164 116t126 114.5t50 130q0 96 -64.5 149.5t-156.5 53.5q-66 0 -113 -26.5t-81 -59.5q-39 -37 -68 -86l-197 131q43 80 111 145q57 53 148.5 99.5t222.5 46.5q96 0 182 -29t150.5 -84t102.5 -135t38 -182q0 -117 -48 -204 t-121 -155.5t-158 -124t-157.5 -107.5t-122 -107.5t-51.5 -123.5h680v-227h-964q-4 35 -8.5 66.5t-4.5 62.5z" />
<glyph unicode="3" horiz-adv-x="1175" d="M72 170l135 203q39 -41 92 -74q43 -29 104.5 -51.5t133.5 -22.5q115 0 188.5 61.5t73.5 155.5q0 57 -24.5 100.5t-67.5 71t-99.5 41t-120.5 13.5h-100l-59 135l266 315q43 49 74 80l30 31v4q-14 -2 -32 -4q-16 -2 -40 -2h-57h-434v227h889v-166l-356 -411 q76 -10 147.5 -43t126.5 -86.5t89 -127t34 -167.5q0 -92 -35 -179.5t-100.5 -153t-160.5 -105.5t-216 -40q-117 0 -206 30t-150 67q-72 43 -125 98z" />
<glyph unicode="4" horiz-adv-x="1271" d="M57 375v162l627 917h313v-860h189v-219h-189v-375h-260v375h-680zM336 594h401v450q0 27 1 53.5t3 49.5q2 25 7 49h-5q-10 -23 -20 -45q-10 -20 -23.5 -44t-27.5 -44l-336 -465v-4z" />
<glyph unicode="5" horiz-adv-x="1165" d="M88 172l135 199q37 -41 84 -74q41 -29 97.5 -50.5t127.5 -21.5q53 0 102.5 17.5t88.5 49.5t61.5 78t22.5 103t-22.5 103.5t-61.5 79t-93.5 51t-115.5 18.5q-49 0 -90 -10t-72 -21q-37 -14 -63 -30l-146 53l68 737h764v-227h-537l-22 -240q-4 -31 -6 -49q-2 -10 -4 -18h4 q20 8 45 16q23 6 49 11t61 5q121 0 216.5 -37.5t161 -102t100 -152t34.5 -185.5q0 -109 -39 -200t-109.5 -157.5t-166.5 -104.5t-209 -38q-117 0 -203 31t-145 68q-68 43 -117 98z" />
<glyph unicode="6" horiz-adv-x="1236" d="M109 666q0 143 40.5 287.5t124.5 261t209 190.5t295 74q70 0 124 -10.5t93 -20.5q45 -14 80 -31l-78 -227q-27 12 -59 22q-29 8 -66.5 15.5t-78.5 7.5q-86 0 -153 -33t-114 -87t-76.5 -124.5t-43.5 -144.5h4q18 23 48.5 41t67.5 32.5t77 21.5t79 7q106 0 193.5 -39 t147.5 -105.5t93 -154.5t33 -186q0 -102 -34 -190.5t-97.5 -155t-151 -104.5t-196.5 -38q-115 0 -216.5 46.5t-178 134.5t-121.5 217t-45 293zM383 573q0 -68 23.5 -132t62.5 -114.5t91.5 -80t109.5 -29.5q102 0 159.5 70.5t57.5 175.5q0 55 -17.5 104t-51.5 85t-83 57.5 t-114 21.5q-49 0 -92.5 -12t-76 -32.5t-51 -50.5t-18.5 -63z" />
<glyph unicode="7" horiz-adv-x="1114" d="M72 1227v227h999v-184l-637 -1270h-274l545 1094q16 35 32.5 59.5t28.5 40.5q14 20 27 33v4q-8 -2 -23 -2q-12 -2 -31.5 -2h-46.5h-620z" />
<glyph unicode="8" horiz-adv-x="1251" d="M104 422q0 78 28 141.5t64.5 111.5t73.5 78.5t54 43.5q-66 51 -108 118.5t-42 165.5q0 76 27.5 147.5t86 127t145.5 89.5t208 34q100 0 187 -28t149.5 -80t98.5 -127t36 -169q0 -68 -23.5 -130t-52 -110.5t-54.5 -80t-32 -37.5q80 -51 133.5 -124t53.5 -185 q0 -84 -34 -162t-99.5 -138.5t-160.5 -96.5t-218 -36q-119 0 -215.5 35t-164 95.5t-104.5 141.5t-37 175zM375 442q0 -51 20.5 -94t54 -73.5t79.5 -48t96 -17.5q102 0 172.5 56.5t70.5 154.5q0 47 -31.5 83t-81.5 66.5t-115 59t-130 59.5q-18 -14 -41 -37.5t-44.5 -54.5 t-35.5 -70t-14 -84zM434 1075q0 -49 26.5 -87t72 -67.5t103.5 -55t120 -52.5q8 8 24.5 29.5t32.5 54.5t28.5 74t12.5 88q0 86 -59.5 135t-157.5 49q-100 0 -151.5 -48t-51.5 -120z" />
<glyph unicode="9" horiz-adv-x="1236" d="M88 991q0 100 34 189.5t97.5 155t151.5 104.5t196 39q113 0 215.5 -46.5t179 -134.5t121.5 -217t45 -293q0 -143 -40.5 -287.5t-124.5 -261t-210 -190.5t-294 -74q-70 0 -124 9.5t-93 21.5q-45 12 -80 31l78 227q27 -14 59 -24q29 -10 65.5 -16.5t77.5 -6.5q86 0 153 33 t115 87t77.5 124.5t43.5 144.5h-4q-18 -23 -48.5 -41t-67.5 -32.5t-78 -21.5t-80 -7q-109 0 -195 39t-145 106.5t-92 155.5t-33 186zM348 991q0 -55 17.5 -104t51.5 -86t83.5 -58.5t115.5 -21.5q49 0 92.5 12t76 33.5t51 50.5t18.5 62q0 68 -23.5 132t-63.5 114.5t-91 80 t-109 29.5q-102 0 -160.5 -69.5t-58.5 -174.5z" />
<glyph unicode=":" horiz-adv-x="589" d="M166 0v260h258v-260h-258zM166 784v260h258v-260h-258z" />
<glyph unicode=";" horiz-adv-x="598" d="M63 -215l119 479h256l-176 -479h-199zM184 784v260h258v-260h-258z" />
<glyph unicode="&#x3c;" horiz-adv-x="1138" d="M51 502v168l985 438v-227l-710 -293v-4l710 -293v-228z" />
<glyph unicode="=" horiz-adv-x="1335" d="M168 274v201h999v-201h-999zM168 694v201h999v-201h-999z" />
<glyph unicode="&#x3e;" horiz-adv-x="1138" d="M102 63v228l711 293v4l-711 293v227l985 -438v-168z" />
<glyph unicode="?" horiz-adv-x="997" d="M49 1335q43 41 101 74q49 29 120.5 51.5t163.5 22.5q86 0 167 -26.5t143.5 -76t99.5 -121t37 -161.5q0 -84 -27 -146.5t-65.5 -109.5t-86 -86t-86 -78t-65.5 -81t-27 -97v-80h-252v98q0 74 25 129t62.5 99.5t81.5 81t82 73.5t62.5 78t24.5 94q0 72 -57 121t-141 49 q-45 0 -84 -13t-70 -30q-37 -20 -65 -43zM272 0v242h252v-242h-252z" />
<glyph unicode="@" horiz-adv-x="1708" d="M104 492q0 160 59.5 299t163 242.5t244 162.5t303.5 59q156 0 264.5 -36.5t174 -98t95.5 -142.5t30 -169v-512h149v-186h-567q-104 0 -185 31.5t-138.5 85t-87 122t-29.5 142.5t29.5 141t86 119.5t138 83t186.5 30.5h174q-4 80 -90 130.5t-221 50.5q-111 0 -207 -46.5 t-166 -123t-110 -177t-40 -208.5q0 -113 39 -212.5t111 -174t174 -118.5t231 -44v-203q-182 0 -331.5 58.5t-256 159.5t-165 238.5t-58.5 295.5zM838 498q0 -84 54 -142.5t144 -58.5h158v401h-154q-92 0 -147 -59t-55 -141z" />
<glyph unicode="A" horiz-adv-x="1304" d="M2 0l512 1454h277l512 -1454h-273l-123 373h-510l-123 -373h-272zM461 588h381l-129 389q-10 31 -20.5 69.5t-18.5 73.5q-8 39 -19 82h-4q-10 -43 -20 -82q-10 -35 -20.5 -73.5t-20.5 -69.5z" />
<glyph unicode="B" horiz-adv-x="1314" d="M184 0v1454h521q98 0 180 -24.5t142 -72.5t93 -118t33 -160q0 -102 -46 -184t-130 -127v-4q59 -18 103 -53t74 -81t44 -99.5t14 -108.5q0 -109 -41 -188.5t-109.5 -132t-159.5 -77t-191 -24.5h-527zM449 227h282q102 0 156.5 59.5t54.5 151.5t-55.5 150.5t-155.5 58.5 h-282v-420zM449 860h256q86 0 133 54.5t47 132.5t-46 129t-139 51h-251v-367z" />
<glyph unicode="C" horiz-adv-x="1466" d="M84 733q0 158 56.5 294t156.5 236.5t237.5 158t296.5 57.5q133 0 233.5 -32t168.5 -69q80 -43 135 -98l-127 -197q-51 41 -113 76q-53 29 -125.5 53.5t-158.5 24.5q-115 0 -206 -40t-153.5 -108.5t-95.5 -159.5t-33 -192q0 -104 34 -198.5t97.5 -166t153.5 -113.5 t205 -42q94 0 172 28.5t133 63.5q66 39 117 92l139 -190q-63 -66 -147 -119q-72 -45 -178.5 -81t-245.5 -36q-166 0 -304.5 58.5t-237.5 160t-154.5 240.5t-55.5 299z" />
<glyph unicode="D" horiz-adv-x="1513" d="M184 0v1454h496q168 0 305 -49t233.5 -141.5t149.5 -227.5t53 -307t-53 -307t-149.5 -229.5t-233.5 -143.5t-305 -49h-496zM449 227h217q221 0 352 128t131 374q0 121 -35 214t-98.5 155.5t-152.5 95.5t-197 33h-217v-1000z" />
<glyph unicode="E" horiz-adv-x="1177" d="M184 0v1454h871v-227h-606v-381h489v-228h-489v-391h638v-227h-903z" />
<glyph unicode="F" horiz-adv-x="1083" d="M184 0v1454h836v-227h-571v-412h481v-227h-481v-588h-265z" />
<glyph unicode="G" horiz-adv-x="1556" d="M86 729q0 158 56.5 295t156.5 238.5t237.5 159t299.5 57.5q135 0 235 -29t168 -64q80 -41 137 -92l-131 -196q-47 39 -106 69q-51 27 -123 48.5t-158 21.5q-123 0 -216 -40t-155.5 -107.5t-95.5 -158.5t-33 -194q0 -119 38 -215t103.5 -163.5t154.5 -104.5t192 -37 q82 0 149.5 23.5t114.5 52.5q55 33 100 76v170h-223v227h461v-766h-225v70v43q0 10 2 18h-4q-47 -43 -111 -78q-53 -29 -131 -53.5t-180 -24.5q-143 0 -272.5 53.5t-227.5 152t-155.5 237.5t-57.5 311z" />
<glyph unicode="H" horiz-adv-x="1562" d="M184 0v1454h265v-616h665v616h264v-1454h-264v610h-665v-610h-265z" />
<glyph unicode="I" horiz-adv-x="632" d="M184 0v1454h265v-1454h-265z" />
<glyph unicode="J" horiz-adv-x="1120" d="M49 430v84h262v-68q0 -66 16.5 -108.5t43 -70t61.5 -39t72 -11.5t70.5 11.5t59 38t41 67.5t15.5 100v793h-375v227h639v-1024q0 -119 -38.5 -205t-103 -141t-146.5 -82t-166 -27t-165 27t-144.5 83t-102.5 142t-39 203z" />
<glyph unicode="K" horiz-adv-x="1325" d="M184 0v1454h265v-592h188l342 592h287l-412 -692v-4l436 -758h-297l-356 635h-188v-635h-265z" />
<glyph unicode="L" horiz-adv-x="1103" d="M184 0v1454h265v-1227h628v-227h-893z" />
<glyph unicode="M" horiz-adv-x="1798" d="M139 0l119 1454h283l284 -719q12 -33 25.5 -69.5t23.5 -69.5l25 -74h4q10 37 23 74q10 33 23.5 69.5t25.5 69.5l285 719h282l117 -1454h-262l-62 813q-4 35 -4 75v75q0 39 2 75h-4q-14 -43 -26 -82q-10 -35 -24.5 -73.5t-27.5 -69.5l-235 -563h-232l-233 563 q-14 31 -27.5 71t-25.5 74q-14 41 -27 82h-4q2 -39 2 -77q0 -35 -1 -75t-3 -75l-62 -813h-264z" />
<glyph unicode="N" horiz-adv-x="1556" d="M184 0v1454h265l550 -840q20 -33 43 -70.5t39 -72.5q20 -39 39 -82h4q-4 41 -8 80q-4 35 -5 74t-1 71v840h262v-1454h-262l-551 838q-23 31 -44 69.5t-38 73.5q-20 39 -39 82h-4q2 -41 6 -80q4 -35 6.5 -74t2.5 -71v-838h-265z" />
<glyph unicode="O" horiz-adv-x="1671" d="M84 737q0 156 57.5 291t157.5 235.5t238.5 158t298.5 57.5t298 -57.5t238.5 -158t157.5 -235.5t57 -291q0 -160 -57 -299t-157.5 -242.5t-239 -162t-297.5 -58.5q-160 0 -298.5 58.5t-238.5 162t-157.5 242.5t-57.5 299zM356 737q0 -113 38 -208t102.5 -164.5 t151.5 -108.5t188 -39q100 0 187 39t151.5 108.5t102.5 165t38 207.5q0 106 -38 198.5t-102.5 159t-151.5 104.5t-187 38t-187.5 -38t-152 -104.5t-102.5 -159t-38 -198.5z" />
<glyph unicode="P" horiz-adv-x="1257" d="M184 0v1454h561q102 0 187.5 -34t147 -96t95 -149.5t33.5 -193.5t-33.5 -194.5t-95 -152t-146.5 -98t-188 -34.5h-296v-502h-265zM449 731h247q117 0 180.5 67.5t63.5 182.5q0 113 -63.5 179.5t-176.5 66.5h-251v-496z" />
<glyph unicode="Q" horiz-adv-x="1691" d="M84 735q0 156 57.5 292t157.5 236.5t237.5 158t297.5 57.5q162 0 299 -57.5t238.5 -158t158.5 -236.5t57 -292q0 -133 -44 -248.5t-116 -212.5l164 -147l-151 -168l-162 160q-92 -70 -203.5 -107t-240.5 -37q-160 0 -297.5 59.5t-237.5 162t-157.5 240.5t-57.5 298z M356 735q0 -111 37 -206t101.5 -164.5t151.5 -108.5t188 -39q66 0 133 20.5t120 55.5l-161 153l151 166l158 -157q37 59 58.5 130.5t21.5 149.5q0 109 -37 201t-102.5 158.5t-153.5 104.5t-188 38t-187.5 -38t-152 -104.5t-101.5 -158.5t-37 -201z" />
<glyph unicode="R" horiz-adv-x="1347" d="M184 0v1454h469q59 0 103.5 -2t78 -7t60.5 -13.5t51 -18.5q111 -49 174.5 -150.5t63.5 -246.5q0 -66 -16.5 -127.5t-48.5 -113.5t-78 -93t-103 -64v-4q6 -6 14 -16q6 -10 15.5 -23.5t19.5 -31.5l299 -543h-295l-289 543h-253v-543h-265zM449 772h237q106 0 167.5 59.5 t61.5 169.5q0 51 -12 93.5t-43 72t-82 45t-129 15.5h-200v-455z" />
<glyph unicode="S" horiz-adv-x="1134" d="M74 174l143 199q47 -43 105 -78q49 -29 114.5 -52.5t143.5 -23.5q41 0 78.5 11.5t67.5 33t47.5 54t17.5 77.5q0 66 -51.5 109t-127 78.5t-165 72.5t-165 89.5t-127 126t-51.5 186.5q0 90 37 168t102.5 134t154.5 88t194 32q109 0 188.5 -24.5t134.5 -53.5q63 -35 111 -78 l-115 -215q-41 35 -92 63q-43 23 -102.5 43.5t-126.5 20.5q-92 0 -155.5 -48t-63.5 -126q0 -63 50 -105.5t127 -77t165 -69.5t164.5 -87t127 -128t50.5 -193q0 -86 -33 -163.5t-94.5 -136t-150.5 -92.5t-202 -34q-123 0 -216 31t-156 68q-76 43 -129 100z" />
<glyph unicode="T" horiz-adv-x="1234" d="M8 1227v227h1219v-227h-477v-1227h-265v1227h-477z" />
<glyph unicode="U" horiz-adv-x="1501" d="M164 522v932h264v-932q0 -147 87 -226t235 -79q147 0 235 80t88 227v930h264v-932q0 -123 -42 -223t-118.5 -172t-185 -112t-239.5 -40q-133 0 -241 40t-185.5 112t-119.5 172t-42 223z" />
<glyph unicode="V" horiz-adv-x="1318" d="M-2 1454h285l319 -948q10 -31 20.5 -69t17.5 -69.5t12 -53.5l5 -21h5l5 21q5 22 12 53.5t17.5 69.5t20.5 69l321 948h283l-530 -1454h-263z" />
<glyph unicode="W" horiz-adv-x="1978" d="M53 1454h273l229 -1005q6 -31 10 -59t8 -50q4 -25 7 -45h4q2 0 6 45t20 109l262 1005h230l258 -1005q16 -63 20 -108.5t6 -45.5h5q2 20 6 45q4 23 7 50.5t11 58.5l240 1005h272l-375 -1454h-305l-223 860q-18 72 -29 131q-6 31 -8 60h-4q-4 -29 -10 -60 q-4 -29 -10.5 -62.5t-16.5 -68.5l-223 -860h-305z" />
<glyph unicode="X" horiz-adv-x="1296" d="M35 0l452 737l-434 717h301l199 -356q16 -33 33.5 -63.5t29.5 -57.5q14 -31 29 -57h4q12 27 27 57q12 25 27.5 56.5t33.5 64.5l203 356h303l-438 -717l455 -737h-297l-226 391q-18 31 -34.5 61.5t-28.5 55.5q-14 29 -27 55h-4q-12 -27 -27 -55q-12 -25 -28.5 -55.5 t-34.5 -61.5l-223 -391h-295z" />
<glyph unicode="Y" horiz-adv-x="1239" d="M4 1454h299l227 -428q18 -35 34 -69.5t28 -62.5t19 -46l7 -17h5q12 31 26 64q12 29 27.5 62.5t34.5 68.5l225 428h299l-483 -846v-608h-265v608z" />
<glyph unicode="Z" horiz-adv-x="1257" d="M78 0v170l645 926q47 66 74 96q16 20 32 35v4q-12 -2 -28 -2q-14 -2 -35 -2h-45h-610v227h1050v-168l-645 -928q-23 -33 -42 -56t-34 -40q-18 -20 -30 -35v-4q12 0 28 2q14 0 34 1t46 1h651v-227h-1091z" />
<glyph unicode="[" horiz-adv-x="649" d="M190 -195v1713h404v-189h-182v-1335h182v-189h-404z" />
<glyph unicode="\" horiz-adv-x="841" d="M41 1528h223l522 -1614h-223z" />
<glyph unicode="]" horiz-adv-x="649" d="M55 -6h183v1335h-183v189h404v-1713h-404v189z" />
<glyph unicode="^" horiz-adv-x="1267" d="M133 502l412 952h164l411 -952h-225l-268 678l-269 -678h-225z" />
<glyph unicode="_" horiz-adv-x="1230" d="M41 0h1149v-201h-1149v201z" />
<glyph unicode="`" horiz-adv-x="1009" d="M293 1829h268l156 -279h-211z" />
<glyph unicode="a" horiz-adv-x="1093" d="M55 301q0 82 34 141.5t88 98.5t123 61.5t137.5 34.5t131 15t105.5 3h35v15q0 102 -57.5 143t-143.5 41q-57 0 -107.5 -16.5t-91.5 -34.5q-47 -23 -88 -49l-98 186q49 35 113 64q53 25 127.5 45t168.5 20q207 0 321 -108.5t114 -307.5v-653h-240v86v28.5t2 22.5q0 10 2 23 h-4l-15 -29q-16 -29 -53.5 -63.5t-99 -63.5t-149.5 -29q-70 0 -134.5 21.5t-113.5 62.5t-78 102.5t-29 139.5zM317 313q0 -53 39 -94t119 -41q51 0 94 24.5t75 64.5t49.5 89.5t17.5 96.5v24h-45q-49 0 -110.5 -5t-114 -22.5t-88.5 -49.5t-36 -87z" />
<glyph unicode="b" horiz-adv-x="1251" d="M143 0v1454h260v-448q0 -20 -1 -36t-1 -28q-2 -14 -2 -24h4q29 41 74 75q39 29 97.5 52.5t142.5 23.5q106 0 191 -40t145.5 -112.5t93.5 -173t33 -221.5q0 -125 -36 -225t-100.5 -172t-151.5 -111t-192 -39q-82 0 -140 25t-97 53q-45 35 -74 78h-4q0 -10 2 -20 q0 -10 1 -22.5t1 -29.5v-59h-246zM395 516q0 -61 16.5 -118.5t48.5 -102.5t81 -72.5t114 -27.5q53 0 101.5 21.5t84.5 62t56.5 101t20.5 138.5q0 150 -72 239t-189 89q-51 0 -98 -19.5t-84 -59.5t-58.5 -102.5t-21.5 -148.5z" />
<glyph unicode="c" horiz-adv-x="1116" d="M68 522q0 111 39.5 210t113.5 174t179.5 119t234.5 44q102 0 178 -24.5t125 -53.5q57 -35 98 -78l-114 -178q-35 31 -76 56q-35 23 -85 40t-112 17q-72 0 -131 -25.5t-100 -69.5t-63.5 -102.5t-22.5 -126.5q0 -66 22.5 -125t65.5 -104t103.5 -71.5t133.5 -26.5 q66 0 122.5 20.5t97.5 44.5q49 29 88 68l100 -185q-47 -49 -111 -86q-53 -33 -134 -58.5t-185 -25.5q-129 0 -234.5 43t-179.5 117t-113.5 173t-39.5 214z" />
<glyph unicode="d" horiz-adv-x="1251" d="M72 522q0 125 34.5 225.5t98 172t149.5 110.5t191 39q86 0 143 -21.5t92 -46.5q41 -29 66 -65h4q-2 8 -2 16v43v459h260v-1454h-246v86v26.5t2 22.5q0 10 2 19h-4q-29 -51 -74 -91q-39 -35 -101 -61.5t-152 -26.5q-106 0 -191.5 40t-146 112t-93 173t-32.5 222zM334 522 q0 -150 71.5 -238.5t188.5 -88.5q51 0 98 19t84 59t58.5 102.5t21.5 148.5q0 61 -16.5 118.5t-48 103t-80.5 73t-115 27.5q-53 0 -101.5 -21.5t-84 -62.5t-56 -101.5t-20.5 -138.5z" />
<glyph unicode="e" horiz-adv-x="1134" d="M70 522q0 121 38.5 221.5t109.5 173t168 112.5t214 40q113 0 200 -39t145.5 -105.5t88 -156.5t29.5 -195q0 -12 -1 -28.5t-3 -32.5q-2 -18 -2 -39h-721q6 -68 33.5 -120t70.5 -87t96.5 -52t112.5 -17q63 0 117.5 17t95.5 40q47 25 88 57l101 -186q-49 -43 -113 -76 q-53 -29 -131 -51.5t-176 -22.5q-129 0 -233.5 44t-177.5 119t-111.5 174t-38.5 210zM344 651h457q-4 106 -62.5 161.5t-144.5 55.5q-100 0 -166 -57t-84 -160z" />
<glyph unicode="f" horiz-adv-x="710" d="M68 821v207h129v47q0 129 46 205t112.5 117t139 53t128.5 12q20 0 35.5 -1t27.5 -3t25 -2v-221q-6 0 -15 2q-8 0 -18 1t-21 1q-29 0 -63.5 -5t-65 -22.5t-51 -51.5t-20.5 -91v-41h223v-207h-223v-821h-260v821h-129z" />
<glyph unicode="g" horiz-adv-x="1236" d="M74 549q0 106 29.5 201.5t88 166t145.5 111.5t200 41q86 0 144 -21.5t95 -46.5q43 -29 70 -65h6q-2 2 -2 8v21v79h244v-981q0 -135 -48.5 -228t-126 -152.5t-176 -86t-200.5 -26.5q-98 0 -196.5 24.5t-174.5 65.5l78 199q39 -20 86 -35q41 -12 92 -22.5t111 -10.5 q59 0 113.5 13.5t94 44t63.5 78.5t24 118v61v19.5t2 17.5q0 8 2 19h-4q-47 -70 -117 -106t-174 -36q-113 0 -200 42t-147.5 115t-91 168t-30.5 204zM336 557q0 -137 67.5 -227t194.5 -90q47 0 90 15t77 50t54.5 94.5t20.5 147.5t-20.5 146.5t-55.5 93t-82 48t-100 13.5 q-119 0 -182.5 -79t-63.5 -212z" />
<glyph unicode="h" horiz-adv-x="1255" d="M143 0v1454h260v-504q0 -20 -1 -35.5t-1 -27.5q-2 -14 -2 -25h4q18 37 52 75t79.5 66.5t103.5 47t126 18.5q174 0 268 -94t94 -303v-672h-258v618q0 47 -7 87t-25.5 68t-51 43t-82.5 15q-104 0 -178.5 -60t-103.5 -157q-10 -31 -13.5 -64.5t-3.5 -70.5v-479h-260z" />
<glyph unicode="i" horiz-adv-x="546" d="M143 0v1044h260v-1044h-260zM143 1223v231h258v-231h-258z" />
<glyph unicode="j" horiz-adv-x="546" d="M-113 -199q4 -2 13 -2q8 -2 32 -2q27 0 64 6.5t69.5 26.5t55 58t22.5 102v1054h260v-1075q0 -131 -48 -208.5t-116.5 -118.5t-143.5 -53.5t-128 -12.5h-33.5t-25.5 2q-12 2 -21 4v219zM143 1223v231h258v-231h-258z" />
<glyph unicode="k" horiz-adv-x="1130" d="M143 0v1454h260v-778h129l252 368h289l-330 -466v-5l371 -573h-299l-276 457h-136v-457h-260z" />
<glyph unicode="l" horiz-adv-x="581" d="M129 326v1128h258v-1089q0 -86 27.5 -115t79.5 -29h26q6 0 12 2v-227l-24 -4q-10 -2 -25.5 -2h-31.5q-53 0 -110.5 10t-105 45t-77 101.5t-29.5 179.5z" />
<glyph unicode="m" horiz-adv-x="1869" d="M143 0v1044h250v-120q0 -16 -1 -28.5t-1 -23.5q-2 -10 -2 -20h4q18 39 51 78t77 69.5t97.5 50t114.5 19.5q240 0 305 -215h4q20 43 56.5 82t82.5 68.5t101 47t117 17.5q164 0 253 -95t89 -302v-672h-260v623q0 45 -5.5 82.5t-20.5 65.5t-44 44t-74 16 q-100 0 -164.5 -69.5t-87.5 -167.5q-8 -31 -10 -64.5t-2 -70.5v-459h-260v623q0 43 -5 80.5t-19.5 66.5t-43 45t-73.5 16q-102 0 -167 -69.5t-89 -169.5q-8 -29 -10.5 -63.5t-2.5 -69.5v-459h-260z" />
<glyph unicode="n" horiz-adv-x="1255" d="M143 0v1044h250v-120q0 -16 -1 -28.5t-1 -23.5q-2 -10 -2 -20h4q16 33 47 71t76 70.5t106.5 54t141.5 21.5q174 0 268 -94t94 -303v-672h-258v618q0 47 -7 87t-25.5 68t-51 43t-82.5 15q-104 0 -177.5 -59t-102.5 -154q-10 -33 -14.5 -67.5t-4.5 -71.5v-479h-260z" />
<glyph unicode="o" d="M66 522q0 119 45 220.5t122.5 173t182 112.5t223.5 41t224.5 -41t183 -112.5t122.5 -173t45 -220.5q0 -121 -45 -221t-122.5 -173t-182 -113t-223.5 -40q-121 0 -225.5 40t-182 113t-122.5 173t-45 221zM330 522q0 -74 24.5 -133t67.5 -102t99.5 -66.5t119.5 -23.5 t119.5 23.5t98.5 66.5t66.5 102.5t24.5 132.5q0 72 -24.5 132.5t-66.5 103.5t-98 66.5t-120 23.5q-63 0 -119.5 -23.5t-99.5 -66.5t-67.5 -103.5t-24.5 -132.5z" />
<glyph unicode="p" horiz-adv-x="1251" d="M143 -410v1454h238v-75q0 -16 -1 -28.5t-1 -22.5q-2 -10 -2 -21h4q29 49 76 86q41 33 104.5 59.5t155.5 26.5q106 0 191 -40t145.5 -112.5t93.5 -173t33 -221.5q0 -125 -36 -225t-99.5 -172t-151.5 -111t-191 -39q-78 0 -134 21.5t-93 50.5q-43 31 -72 72h-4q0 -10 2 -25 q0 -12 1 -28.5t1 -36.5v-439h-260zM395 516q0 -61 16.5 -118.5t49.5 -102.5t81 -72.5t113 -27.5q53 0 101.5 21.5t84.5 62t56.5 101t20.5 138.5q0 150 -72 239t-189 89q-51 0 -98 -19.5t-84 -59.5t-58.5 -102.5t-21.5 -148.5z" />
<glyph unicode="q" horiz-adv-x="1251" d="M72 522q0 125 34.5 225.5t98 172t149.5 110.5t191 39q86 0 145.5 -23.5t97.5 -52.5q45 -35 74 -75h4q-2 8 -2 18q-2 10 -2 21.5v27.5v59h246v-1454h-260v451v36.5t2 28.5q0 14 2 25h-4q-29 -43 -72 -78q-39 -29 -97 -53.5t-144 -24.5q-106 0 -191.5 40t-146 112t-93 173 t-32.5 222zM334 522q0 -150 71.5 -238.5t188.5 -88.5q51 0 98 19t84 59t58.5 102.5t21.5 148.5q0 61 -16.5 118.5t-48 103t-80.5 73t-115 27.5q-53 0 -101.5 -21.5t-84 -62.5t-56 -101.5t-20.5 -138.5z" />
<glyph unicode="r" horiz-adv-x="804" d="M143 0v1044h250v-180q0 -16 -1 -28.5t-1 -22.5q-2 -12 -2 -22h4q18 55 49 104t74 86t96.5 57.5t112.5 20.5q10 0 18.5 -1t14.5 -1q8 -2 14 -2v-256q-10 0 -18 2q-8 0 -19.5 1t-23.5 1q-41 0 -84 -12.5t-82 -39t-70 -68.5t-49 -99q-12 -39 -17.5 -81t-5.5 -89v-414h-260z " />
<glyph unicode="s" horiz-adv-x="925" d="M55 129l119 182q35 -33 78 -57q37 -23 89 -40t118 -17q55 0 96 23.5t41 70.5q0 39 -38 65.5t-94 51t-122 51t-122 66.5t-94 96.5t-38 140.5q0 74 31 130t84 96t126.5 60.5t157.5 20.5q88 0 155 -18.5t110 -40.5q51 -27 86 -60l-97 -192q-31 25 -67 45q-35 16 -82 30.5 t-107 14.5q-51 0 -92 -22.5t-41 -71.5q0 -37 38 -62.5t94.5 -49.5t122 -50.5t121.5 -65.5t94 -96t38 -141q0 -66 -27.5 -123t-79 -99t-126 -67t-166.5 -25q-98 0 -173 24t-128 52q-61 35 -105 78z" />
<glyph unicode="t" horiz-adv-x="772" d="M53 821v207h142v301h254v-301h237v-207h-237v-405q0 -66 22.5 -104t54 -59.5t67.5 -27.5t62 -6q27 0 35 2q8 0 12 2v-227q-10 -2 -22 -4q-10 -2 -24.5 -2h-32.5q-55 0 -130 12t-142.5 53t-115 119t-47.5 209v438h-135z" />
<glyph unicode="u" horiz-adv-x="1247" d="M129 373v671h260v-618q0 -96 33 -154.5t129 -58.5q70 0 125 28.5t92 78t56.5 113t19.5 132.5v479h260v-1044h-250v119v28.5t2 22.5q0 10 2 23h-4q-18 -41 -53 -80t-81 -70t-103.5 -49.5t-124.5 -18.5q-168 0 -265.5 92.5t-97.5 305.5z" />
<glyph unicode="v" horiz-adv-x="1062" d="M0 1044h274l218 -647q8 -23 14 -50.5t11 -51t8 -39.5l3 -16h4l4 16q3 16 8 39.5t11 51.5t14 50l217 647h275l-375 -1044h-307z" />
<glyph unicode="w" horiz-adv-x="1681" d="M29 1044h274l182 -686q4 -23 8.5 -41l8.5 -34q4 -18 4 -35h4q2 16 6 35q4 16 8 34.5t11 40.5l192 684h231l193 -684q4 -23 8 -41t8 -34q4 -18 7 -35h4q2 16 6 35q4 16 7 34.5t9 40.5l182 686h271l-318 -1044h-288l-177 596q-14 45 -20 78q-4 18 -6 35h-4q-2 -16 -6 -35 q-4 -16 -8.5 -37t-10.5 -41l-176 -596h-291z" />
<glyph unicode="x" horiz-adv-x="1073" d="M35 0l344 528l-336 516h295l162 -284q6 -10 12 -21.5t10 -21.5q6 -10 13 -23h4q4 12 10 23q4 10 11 21.5t13 21.5l162 284h295l-336 -516l344 -528h-288l-183 303q-6 8 -11 18.5t-9 18.5q-6 8 -8 18h-4q-2 -10 -9 -18q-4 -8 -10 -18.5t-10 -18.5l-182 -303h-289z" />
<glyph unicode="y" horiz-adv-x="1067" d="M-16 1044h292l220 -602q8 -23 14 -46l12 -46q6 -25 13 -49h4q4 25 10 47q4 20 10 44t14 46l205 606h285l-467 -1202q-55 -143 -156.5 -207.5t-220.5 -64.5q-47 0 -87 10t-69 23q-35 14 -61 35l86 194q16 -14 37 -22q16 -8 36.5 -14.5t43.5 -6.5q53 0 102 33t78 102l39 92 z" />
<glyph unicode="z" horiz-adv-x="1073" d="M72 0v139l469 588q16 23 32.5 40t28.5 30l27 26v4q-10 -2 -25 -2q-12 -2 -29.5 -2h-42.5h-440v221h889v-141l-469 -588q-18 -23 -34.5 -40t-28.5 -29l-27 -27v-4q10 0 24 2q12 2 30 3t44 1h475v-221h-923z" />
<glyph unicode="{" horiz-adv-x="747" d="M88 557v227q49 6 86 31q33 23 60.5 66t27.5 120v177q0 117 40 185.5t97.5 104t120 46t105.5 10.5q14 0 24 -1t21 -1h18v-193h-10q-4 0 -11.5 1t-15.5 1q-20 0 -49 -5t-55.5 -23.5t-45 -53.5t-18.5 -92v-223q0 -78 -26.5 -128t-57.5 -79q-37 -35 -84 -53v-4q47 -14 84 -49 q31 -29 57.5 -80.5t26.5 -128.5v-246q0 -59 18.5 -94t45 -52.5t55.5 -22.5t49 -5h27q6 0 10 2v-193q-10 -2 -18 -2q-10 -2 -20.5 -2h-24.5q-43 0 -105.5 10.5t-120 46t-97.5 105.5t-40 186v199q0 78 -27.5 119t-60.5 63q-37 23 -86 31z" />
<glyph unicode="|" horiz-adv-x="593" d="M186 -330v1960h222v-1960h-222z" />
<glyph unicode="}" horiz-adv-x="747" d="M59 -6q4 -2 11 -2h26q20 0 49 5t54.5 22.5t44 52t18.5 94.5v246q0 78 25.5 129t58.5 80q37 35 86 49v4q-49 18 -86 53q-33 29 -58.5 79t-25.5 128v223q0 57 -18.5 92t-44 53.5t-54 23.5t-49.5 5q-8 0 -15 -1t-11 -1h-11v193h19q8 0 19.5 1t25.5 1q43 0 105.5 -10.5 t120 -46t97 -104.5t39.5 -185v-177q0 -78 27 -120.5t59 -65.5q37 -25 88 -31v-227q-51 -8 -88 -31q-33 -23 -59.5 -63.5t-26.5 -118.5v-199q0 -117 -39.5 -186.5t-97 -105t-120 -46t-105.5 -10.5h-25.5t-19.5 2q-10 0 -19 2v193z" />
<glyph unicode="~" horiz-adv-x="1249" d="M115 408q0 190 82 281t233 91q76 0 126 -28.5t88 -64.5t75 -64.5t88 -28.5q68 0 97.5 54t29.5 124h205q0 -190 -81 -281.5t-233 -91.5q-78 0 -127 29t-87 63.5t-74.5 63.5t-87.5 29q-68 0 -97.5 -53.5t-29.5 -122.5h-207z" />
<glyph unicode="&#xa1;" horiz-adv-x="624" d="M176 -410l23 1033h227l20 -1033h-270zM186 801v241h250v-241h-250z" />
<glyph unicode="&#xa2;" horiz-adv-x="1179" d="M92 727q0 111 32 208t88 174t136 128t178 68v172h176v-172q137 -25 238.5 -113t151.5 -219l-234 -90q-31 76 -89 129t-148 53q-59 0 -108.5 -25.5t-84.5 -69.5t-54.5 -106.5t-19.5 -136.5q0 -154 72 -246t195 -92q88 0 147 52.5t90 129.5l234 -90q-23 -55 -59 -110.5 t-84 -100.5t-110.5 -77.5t-136.5 -40.5v-177h-176v177q-98 16 -178 66t-136 127t-88 174t-32 208z" />
<glyph unicode="&#xa3;" horiz-adv-x="1210" d="M104 0v227h119v410h-88v178h88v248q0 90 35 167t97.5 132t147.5 86t187 31q84 0 151.5 -22.5t114.5 -51.5q55 -33 101 -74l-150 -180q-29 23 -63 43q-29 16 -67 30.5t-81 14.5q-92 0 -148 -53t-56 -131v-240h362v-178h-362v-410h638v-227h-1026z" />
<glyph unicode="&#xa5;" horiz-adv-x="1257" d="M47 1454h301l191 -387q20 -41 35.5 -82t27.5 -76q12 -39 25 -75h4q10 37 24 75q10 35 26.5 76t37.5 82l190 387h301l-315 -592h201v-155h-281l-51 -101v-67h332v-156h-332v-383h-268v383h-334v156h334v67l-54 101h-280v155h200z" />
<glyph unicode="&#xa7;" horiz-adv-x="962" d="M78 -2l110 176q29 -25 66 -45q31 -16 74 -30.5t92 -14.5q86 0 148.5 49t62.5 158q0 25 -5 53.5t-14 63.5l-137 661h205l145 -704q6 -29 10.5 -54.5t4.5 -50.5q0 -84 -27 -154.5t-79 -122t-131 -81t-183 -29.5q-82 0 -144.5 19.5t-107.5 41.5q-53 27 -90 64zM117 1104 q0 80 27.5 148.5t81 118.5t131 79t180.5 29q80 0 143 -20.5t108 -43.5q53 -29 91 -63l-117 -166q-29 20 -64 39q-29 16 -70.5 28.5t-88.5 12.5q-90 0 -150.5 -45t-60.5 -148q0 -23 4 -48.5t10 -53.5l141 -688h-202l-150 704q-6 29 -10 58.5t-4 58.5z" />
<glyph unicode="&#xa8;" horiz-adv-x="1009" d="M217 1591v238h201v-238h-201zM594 1591v238h199v-238h-199z" />
<glyph unicode="&#xa9;" horiz-adv-x="1656" d="M94 727q0 156 57.5 293t157 238.5t232.5 160t284 58.5q154 0 288 -58.5t234.5 -160t158 -238.5t57.5 -293t-57.5 -293t-158 -238.5t-234.5 -161t-288 -59.5q-152 0 -284.5 59.5t-232 161t-157 238.5t-57.5 293zM276 727q0 -123 42 -229.5t116 -186.5t174.5 -125 t216.5 -45q119 0 220.5 45t176 125t117.5 186.5t43 229.5t-43 229.5t-117.5 185.5t-176 124t-220.5 45q-117 0 -217 -45t-174 -124t-116 -185.5t-42 -229.5zM453 723q0 82 27.5 154.5t78.5 127t122 86t155 31.5q92 0 155.5 -33.5t102.5 -74.5q45 -47 73 -107l-155 -73 q-16 33 -41 59q-23 23 -54.5 41t-74.5 18q-92 0 -146.5 -66.5t-54.5 -162.5q0 -98 52 -163.5t149 -65.5q45 0 75.5 18t53.5 41q23 25 41 59l155 -71q-29 -61 -73 -109q-39 -41 -102.5 -74.5t-155.5 -33.5q-84 0 -155 31.5t-122 86t-78.5 127t-27.5 154.5z" />
<glyph unicode="&#xaa;" horiz-adv-x="845" d="M127 985q0 82 44 128t105.5 67.5t126 25.5t103.5 4h18v15q0 59 -33.5 82.5t-84.5 23.5q-33 0 -63 -9t-52 -19q-27 -12 -53 -27l-66 121q29 20 68 39q35 14 83 26.5t111 12.5q135 0 205 -71t70 -196v-411h-172v90h-5q-18 -29 -43 -51q-23 -20 -57.5 -36t-85.5 -16 q-41 0 -80 13.5t-69.5 39t-50 62.5t-19.5 86zM129 545v139h586v-139h-586zM311 997q0 -31 21.5 -50t60.5 -19q29 0 52.5 13t41 33.5t26.5 47.5t9 53v15h-22q-27 0 -59.5 -3.5t-61.5 -12.5t-48.5 -27.5t-19.5 -49.5z" />
<glyph unicode="&#xab;" horiz-adv-x="1196" d="M72 578l336 421h247l-336 -421l336 -420h-247zM530 578l336 421h248l-336 -421l336 -420h-248z" />
<glyph unicode="&#xac;" horiz-adv-x="1234" d="M96 694v201h1000v-602h-209v401h-791z" />
<glyph unicode="&#xad;" horiz-adv-x="882" d="M133 471v227h617v-227h-617z" />
<glyph unicode="&#xae;" horiz-adv-x="1656" d="M94 727q0 156 57.5 293t157 238.5t232.5 160t284 58.5q154 0 288 -58.5t234.5 -160t158 -238.5t57.5 -293t-57.5 -293t-158 -238.5t-234.5 -161t-288 -59.5q-152 0 -284.5 59.5t-232 161t-157 238.5t-57.5 293zM276 727q0 -123 42 -229.5t116 -186.5t174.5 -125 t216.5 -45q119 0 220.5 45t176 125t117.5 186.5t43 229.5t-43 229.5t-117.5 185.5t-176 124t-220.5 45q-117 0 -217 -45t-174 -124t-116 -185.5t-42 -229.5zM569 356v750h312q111 0 178 -64.5t67 -173.5q0 -43 -13 -76.5t-33.5 -58t-43 -39t-43.5 -20.5v-4q2 -2 6 -8 q4 -4 8.5 -13.5t12.5 -21.5l141 -271h-192l-127 277h-99v-277h-174zM743 756h97q51 0 79.5 29.5t28.5 82.5t-28.5 82t-77.5 29h-99v-223z" />
<glyph unicode="&#xaf;" horiz-adv-x="1009" d="M238 1604v178h536v-178h-536z" />
<glyph unicode="&#xb0;" horiz-adv-x="808" d="M72 1157q0 66 25.5 125t70.5 103.5t106.5 70t131.5 25.5t130 -25.5t105 -70t71.5 -103.5t26.5 -125q0 -68 -26.5 -126t-71.5 -102t-105 -68.5t-130 -24.5t-131.5 24.5t-106.5 68.5t-70.5 102.5t-25.5 125.5zM270 1157q0 -57 39.5 -96t96.5 -39t97 39t40 96q0 55 -40 95 t-97 40t-96.5 -40t-39.5 -95z" />
<glyph unicode="&#xb1;" horiz-adv-x="1296" d="M100 483v203h443v485h211v-485h442v-203h-442v-483h-211v483h-443zM129 -174h1040v-201h-1040v201z" />
<glyph unicode="&#xb2;" horiz-adv-x="808" d="M90 950q0 88 32 151.5t79 109.5t101 80t101.5 66t79 64.5t31.5 77.5q0 47 -37 77t-90 30q-35 0 -63.5 -15.5t-51.5 -31.5q-25 -23 -47 -48l-127 113q31 43 74 80q37 31 93.5 56.5t133.5 25.5q61 0 117.5 -18.5t99.5 -54.5t69 -87t26 -119q0 -74 -29 -126t-73 -92 t-95 -70.5t-96 -58t-77 -57.5t-36 -67h418v-170h-625q-4 23 -6 44.5t-2 39.5z" />
<glyph unicode="&#xb3;" horiz-adv-x="808" d="M74 983l102 137q20 -27 51 -49q25 -18 63 -32.5t85 -14.5q59 0 103 37t44 92q0 59 -49 88t-111 29h-71l-41 92l162 184q6 8 14 16.5t16 16.5t19 16v4q-12 -2 -25 -4q-10 -2 -23.5 -2h-23.5h-264v172h573v-125l-202 -229q98 -18 160.5 -83.5t62.5 -176.5 q0 -59 -23.5 -114.5t-67.5 -97.5t-106.5 -67.5t-142.5 -25.5q-78 0 -134.5 20.5t-94.5 46.5q-45 31 -76 70z" />
<glyph unicode="&#xb4;" horiz-adv-x="1009" d="M293 1550l156 279h268l-215 -279h-209z" />
<glyph unicode="&#xb6;" horiz-adv-x="1255" d="M74 975q0 100 38 188t103.5 152.5t153.5 101.5t186 37h625v-227h-437v-1329h-188v596q-98 0 -186 36.5t-153.5 102t-103.5 152.5t-38 190zM870 -102v1216h191v-1216h-191z" />
<glyph unicode="&#xb7;" horiz-adv-x="567" d="M158 469v258h252v-258h-252z" />
<glyph unicode="&#xb8;" horiz-adv-x="1009" d="M332 -268q12 -4 26 -8q12 -4 28.5 -6.5t33.5 -2.5q37 0 63.5 12.5t26.5 45.5q0 29 -28.5 42t-69.5 13q-10 0 -17.5 -1t-13.5 -1q-8 -2 -12 -2l63 227l119 -26v-15l-23 -100q63 -8 106.5 -46t43.5 -110q0 -51 -19.5 -85t-50 -55.5t-70.5 -30.5t-81 -9q-55 0 -88 6 q-20 4 -37 8v144z" />
<glyph unicode="&#xb9;" horiz-adv-x="808" d="M117 1542l231 223h172v-729h187v-170h-570v170h189v424v22.5t2 18.5q0 8 2 17h-4q-2 -6 -7 -13q-4 -6 -10 -12l-14 -14l-64 -60z" />
<glyph unicode="&#xba;" horiz-adv-x="935" d="M109 1133q0 76 28.5 138t76.5 107t113.5 71t139.5 26t139.5 -26t114.5 -71t77.5 -107.5t28.5 -137.5q0 -76 -28.5 -139.5t-77.5 -109.5t-114.5 -72t-139.5 -26t-139.5 26t-113.5 72t-76.5 109.5t-28.5 139.5zM139 545v139h660v-139h-660zM295 1133q0 -82 50 -132.5 t122 -50.5t123 50.5t51 132.5q0 80 -51 130t-123 50t-122 -50.5t-50 -129.5z" />
<glyph unicode="&#xbb;" horiz-adv-x="1198" d="M82 158l336 420l-336 421h248l336 -421l-336 -420h-248zM543 158l336 420l-336 421h248l335 -421l-335 -420h-248z" />
<glyph unicode="&#xbc;" horiz-adv-x="2000" d="M115 1231l231 223h172v-729h187v-170h-570v170h189v424v22.5t2 18.5q0 8 2 16h-4q-2 -6 -7 -12q-4 -6 -10 -12t-14 -15l-64 -59zM563 0l688 1454h189l-686 -1454h-191zM1214 203v131l388 565h221v-528h119v-168h-119v-203h-191v203h-418zM1413 371h219v225v39.5t2 36.5 q2 18 4 37h-4q-8 -16 -16 -33q-8 -14 -17.5 -30.5t-19.5 -33.5l-168 -237v-4z" />
<glyph unicode="&#xbd;" horiz-adv-x="2004" d="M88 1231l231 223h173v-729h186v-170h-569v170h188v424v22.5t2 18.5q0 8 2 16h-4q-2 -6 -6 -12t-10.5 -12t-14.5 -15l-63 -59zM543 0l688 1454h188l-686 -1454h-190zM1251 84q0 88 32 151.5t79 109.5t101.5 80t101.5 65.5t78.5 64.5t31.5 78q0 47 -36.5 76.5t-90.5 29.5 q-35 0 -63.5 -15t-50.5 -32q-25 -23 -48 -47l-126 113q31 43 73 80q37 31 93.5 56.5t134.5 25.5q61 0 117.5 -18.5t99.5 -54.5t68.5 -87t25.5 -119q0 -74 -28.5 -126t-73 -92t-95.5 -70.5t-96 -58.5t-77 -57.5t-36 -66.5h418v-170h-624q-4 23 -6.5 44.5t-2.5 39.5z" />
<glyph unicode="&#xbe;" horiz-adv-x="2019" d="M68 672l102 137q20 -27 51 -49q25 -18 63 -32.5t85 -14.5q59 0 103 36.5t44 92.5q0 59 -49 87.5t-111 28.5h-71l-41 93l162 184q6 8 14 16.5t16 16.5t19 16v4q-12 -2 -25 -4q-10 -2 -23.5 -2h-23.5h-264v172h573v-125l-203 -229q98 -18 161 -84t63 -176 q0 -59 -23.5 -114.5t-67.5 -97.5t-106.5 -67.5t-142.5 -25.5q-78 0 -134.5 20t-95.5 47q-45 31 -75 70zM555 0l688 1454h189l-687 -1454h-190zM1206 203v131l387 565h222v-528h118v-168h-118v-203h-191v203h-418zM1405 371h219v225v39.5t2 36.5q2 18 4 37h-4q-8 -16 -16 -33 q-8 -14 -17.5 -30.5t-19.5 -33.5l-168 -237v-4z" />
<glyph unicode="&#xbf;" horiz-adv-x="940" d="M66 -45q0 84 26.5 145.5t66.5 109.5t86 87t86 78t66.5 81t26.5 97v72h250v-90q0 -74 -24.5 -129.5t-62.5 -100.5t-81 -82t-81 -73.5t-62.5 -77.5t-24.5 -92q0 -72 57.5 -122.5t141.5 -50.5q43 0 82.5 13.5t68.5 29.5q35 20 66 46l145 -181q-45 -41 -102 -73 q-49 -29 -120 -50.5t-163 -21.5q-86 0 -167 25.5t-143.5 74.5t-100 121t-37.5 164zM424 803v241h250v-241h-250z" />
<glyph unicode="&#xc0;" horiz-adv-x="1304" d="M2 0l512 1454h277l512 -1454h-273l-123 373h-510l-123 -373h-272zM340 1829h268l156 -279h-211zM461 588h381l-129 389q-10 31 -20.5 69.5t-18.5 73.5q-8 39 -19 82h-4q-10 -43 -20 -82q-10 -35 -20.5 -73.5t-20.5 -69.5z" />
<glyph unicode="&#xc1;" horiz-adv-x="1304" d="M2 0l512 1454h277l512 -1454h-273l-123 373h-510l-123 -373h-272zM461 588h381l-129 389q-10 31 -20.5 69.5t-18.5 73.5q-8 39 -19 82h-4q-10 -43 -20 -82q-10 -35 -20.5 -73.5t-20.5 -69.5zM541 1550l155 279h269l-215 -279h-209z" />
<glyph unicode="&#xc2;" horiz-adv-x="1304" d="M2 0l512 1454h277l512 -1454h-273l-123 373h-510l-123 -373h-272zM334 1550l188 279h260l191 -279h-215l-103 166h-4l-102 -166h-215zM461 588h381l-129 389q-10 31 -20.5 69.5t-18.5 73.5q-8 39 -19 82h-4q-10 -43 -20 -82q-10 -35 -20.5 -73.5t-20.5 -69.5z" />
<glyph unicode="&#xc3;" horiz-adv-x="1304" d="M2 0l512 1454h277l512 -1454h-273l-123 373h-510l-123 -373h-272zM281 1552q0 281 229 281q51 0 86 -20.5t62.5 -46t53 -46t56.5 -20.5q43 0 61.5 39t18.5 88h176q0 -281 -229 -281q-51 0 -86 20.5t-63 46t-53.5 46t-55.5 20.5q-43 0 -60.5 -37.5t-17.5 -89.5h-178z M461 588h381l-129 389q-10 31 -20.5 69.5t-18.5 73.5q-8 39 -19 82h-4q-10 -43 -20 -82q-10 -35 -20.5 -73.5t-20.5 -69.5z" />
<glyph unicode="&#xc4;" horiz-adv-x="1304" d="M2 0l512 1454h277l512 -1454h-273l-123 373h-510l-123 -373h-272zM365 1591v238h200v-238h-200zM461 588h381l-129 389q-10 31 -20.5 69.5t-18.5 73.5q-8 39 -19 82h-4q-10 -43 -20 -82q-10 -35 -20.5 -73.5t-20.5 -69.5zM741 1591v238h199v-238h-199z" />
<glyph unicode="&#xc5;" horiz-adv-x="1304" d="M2 0l512 1454h277l512 -1454h-273l-123 373h-510l-123 -373h-272zM459 1686q0 39 16.5 69.5t44 51t62 30.5t71.5 10t71 -10t61.5 -30.5t44 -51.5t16.5 -69q0 -39 -16.5 -69t-44 -50.5t-61.5 -30.5t-71 -10t-71.5 10t-62 30.5t-44 50.5t-16.5 69zM461 588h381l-129 389 q-10 31 -20.5 69.5t-18.5 73.5q-8 39 -19 82h-4q-10 -43 -20 -82q-10 -35 -20.5 -73.5t-20.5 -69.5zM584 1686q0 -31 18 -50.5t51 -19.5q31 0 50.5 19.5t19.5 50.5q0 33 -19.5 52t-50.5 19t-50 -19.5t-19 -51.5z" />
<glyph unicode="&#xc6;" horiz-adv-x="1849" d="M-8 0l604 1454h1133v-227h-609v-381h492v-228h-492v-391h639v-227h-901v623h-346l-246 -623h-274zM596 838h262v389h-108z" />
<glyph unicode="&#xc7;" horiz-adv-x="1470" d="M88 733q0 158 56.5 294t156.5 236.5t237.5 158t297.5 57.5q133 0 233 -32t168 -69q80 -43 135 -98l-127 -197q-51 41 -112 76q-53 29 -126 53.5t-159 24.5q-115 0 -206 -40t-153.5 -108.5t-95.5 -159.5t-33 -192q0 -104 34 -198.5t97.5 -166t153.5 -113.5t205 -42 q94 0 172 28.5t133 63.5q66 39 117 92l139 -190q-57 -59 -137 -111q-68 -43 -168 -80.5t-229 -42.5l-15 -67q63 -8 106.5 -46t43.5 -110q0 -51 -19.5 -85t-50.5 -55.5t-71 -30.5t-80 -9q-55 0 -89 6q-20 4 -36 8v144q12 -4 26 -8q12 -4 28.5 -6.5t33.5 -2.5q37 0 63.5 12.5 t26.5 45.5q0 29 -29 42t-70 13q-10 0 -17 -1t-13 -1q-8 -2 -13 -2l43 158q-147 14 -268 77.5t-208 164t-134 230t-47 279.5z" />
<glyph unicode="&#xc8;" horiz-adv-x="1177" d="M184 0v1454h871v-227h-606v-381h489v-228h-489v-391h638v-227h-903zM328 1829h268l156 -279h-211z" />
<glyph unicode="&#xc9;" horiz-adv-x="1177" d="M184 0v1454h871v-227h-606v-381h489v-228h-489v-391h638v-227h-903zM528 1550l156 279h268l-215 -279h-209z" />
<glyph unicode="&#xca;" horiz-adv-x="1177" d="M184 0v1454h871v-227h-606v-381h489v-228h-489v-391h638v-227h-903zM322 1550l188 279h260l191 -279h-216l-102 166h-4l-102 -166h-215z" />
<glyph unicode="&#xcb;" horiz-adv-x="1177" d="M184 0v1454h871v-227h-606v-381h489v-228h-489v-391h638v-227h-903zM352 1591v238h201v-238h-201zM729 1591v238h199v-238h-199z" />
<glyph unicode="&#xcc;" horiz-adv-x="632" d="M6 1829h268l156 -279h-211zM184 0v1454h265v-1454h-265z" />
<glyph unicode="&#xcd;" horiz-adv-x="632" d="M184 0v1454h265v-1454h-265zM205 1550l155 279h269l-215 -279h-209z" />
<glyph unicode="&#xce;" horiz-adv-x="632" d="M-2 1550l188 279h260l191 -279h-215l-103 166h-4l-102 -166h-215zM184 0v1454h265v-1454h-265z" />
<glyph unicode="&#xcf;" horiz-adv-x="632" d="M31 1591v238h200v-238h-200zM184 0v1454h265v-1454h-265zM408 1591v238h198v-238h-198z" />
<glyph unicode="&#xd0;" horiz-adv-x="1552" d="M104 616v215h119v623h496q168 0 305 -49t233.5 -141.5t149.5 -227.5t53 -307t-53 -307t-149.5 -229.5t-233.5 -143.5t-305 -49h-496v616h-119zM487 227h218q221 0 352 128t131 374q0 121 -35 214t-98.5 155.5t-152.5 95.5t-197 33h-218v-396h271v-215h-271v-389z" />
<glyph unicode="&#xd1;" horiz-adv-x="1556" d="M184 0v1454h265l550 -840q20 -33 43 -70.5t39 -72.5q20 -39 39 -82h4q-4 41 -8 80q-4 35 -5 74t-1 71v840h262v-1454h-262l-551 838q-23 31 -44 69.5t-38 73.5q-20 39 -39 82h-4q2 -41 6 -80q4 -35 6.5 -74t2.5 -71v-838h-265zM408 1552q0 281 229 281q51 0 86 -20.5 t62.5 -46t53 -46t56.5 -20.5q43 0 61.5 39t18.5 88h176q0 -281 -229 -281q-51 0 -86 20.5t-63 46t-53.5 46t-55.5 20.5q-43 0 -60.5 -37.5t-17.5 -89.5h-178z" />
<glyph unicode="&#xd2;" horiz-adv-x="1671" d="M84 737q0 156 57.5 291t157.5 235.5t238.5 158t298.5 57.5t298 -57.5t238.5 -158t157.5 -235.5t57 -291q0 -160 -57 -299t-157.5 -242.5t-239 -162t-297.5 -58.5q-160 0 -298.5 58.5t-238.5 162t-157.5 242.5t-57.5 299zM356 737q0 -113 38 -208t102.5 -164.5 t151.5 -108.5t188 -39q100 0 187 39t151.5 108.5t102.5 165t38 207.5q0 106 -38 198.5t-102.5 159t-151.5 104.5t-187 38t-187.5 -38t-152 -104.5t-102.5 -159t-38 -198.5zM524 1829h269l155 -279h-211z" />
<glyph unicode="&#xd3;" horiz-adv-x="1671" d="M84 737q0 156 57.5 291t157.5 235.5t238.5 158t298.5 57.5t298 -57.5t238.5 -158t157.5 -235.5t57 -291q0 -160 -57 -299t-157.5 -242.5t-239 -162t-297.5 -58.5q-160 0 -298.5 58.5t-238.5 162t-157.5 242.5t-57.5 299zM356 737q0 -113 38 -208t102.5 -164.5 t151.5 -108.5t188 -39q100 0 187 39t151.5 108.5t102.5 165t38 207.5q0 106 -38 198.5t-102.5 159t-151.5 104.5t-187 38t-187.5 -38t-152 -104.5t-102.5 -159t-38 -198.5zM723 1550l156 279h268l-215 -279h-209z" />
<glyph unicode="&#xd4;" horiz-adv-x="1671" d="M84 737q0 156 57.5 291t157.5 235.5t238.5 158t298.5 57.5t298 -57.5t238.5 -158t157.5 -235.5t57 -291q0 -160 -57 -299t-157.5 -242.5t-239 -162t-297.5 -58.5q-160 0 -298.5 58.5t-238.5 162t-157.5 242.5t-57.5 299zM356 737q0 -113 38 -208t102.5 -164.5 t151.5 -108.5t188 -39q100 0 187 39t151.5 108.5t102.5 165t38 207.5q0 106 -38 198.5t-102.5 159t-151.5 104.5t-187 38t-187.5 -38t-152 -104.5t-102.5 -159t-38 -198.5zM516 1550l189 279h260l190 -279h-215l-102 166h-4l-103 -166h-215z" />
<glyph unicode="&#xd5;" horiz-adv-x="1671" d="M84 737q0 156 57.5 291t157.5 235.5t238.5 158t298.5 57.5t298 -57.5t238.5 -158t157.5 -235.5t57 -291q0 -160 -57 -299t-157.5 -242.5t-239 -162t-297.5 -58.5q-160 0 -298.5 58.5t-238.5 162t-157.5 242.5t-57.5 299zM356 737q0 -113 38 -208t102.5 -164.5 t151.5 -108.5t188 -39q100 0 187 39t151.5 108.5t102.5 165t38 207.5q0 106 -38 198.5t-102.5 159t-151.5 104.5t-187 38t-187.5 -38t-152 -104.5t-102.5 -159t-38 -198.5zM465 1552q0 281 229 281q51 0 86 -20.5t62.5 -46t53.5 -46t56 -20.5q43 0 61.5 39t18.5 88h176 q0 -281 -229 -281q-51 0 -86 20.5t-62.5 46t-53 46t-56.5 20.5q-43 0 -60.5 -37.5t-17.5 -89.5h-178z" />
<glyph unicode="&#xd6;" horiz-adv-x="1671" d="M84 737q0 156 57.5 291t157.5 235.5t238.5 158t298.5 57.5t298 -57.5t238.5 -158t157.5 -235.5t57 -291q0 -160 -57 -299t-157.5 -242.5t-239 -162t-297.5 -58.5q-160 0 -298.5 58.5t-238.5 162t-157.5 242.5t-57.5 299zM356 737q0 -113 38 -208t102.5 -164.5 t151.5 -108.5t188 -39q100 0 187 39t151.5 108.5t102.5 165t38 207.5q0 106 -38 198.5t-102.5 159t-151.5 104.5t-187 38t-187.5 -38t-152 -104.5t-102.5 -159t-38 -198.5zM549 1591v238h201v-238h-201zM926 1591v238h198v-238h-198z" />
<glyph unicode="&#xd7;" horiz-adv-x="1273" d="M96 141l404 445l-404 442l142 143l399 -438l399 438l142 -143l-406 -442l406 -445l-142 -141l-399 438l-399 -438z" />
<glyph unicode="&#xd8;" horiz-adv-x="1679" d="M90 737q0 156 57.5 291t158 235.5t238.5 158t298 57.5q104 0 197.5 -24.5t177.5 -70.5l88 123l116 -80l-88 -122q121 -102 190.5 -248t69.5 -320q0 -160 -57 -299t-157.5 -242.5t-239 -162t-297.5 -58.5q-111 0 -208 27t-183 78l-97 -133l-116 80l100 137 q-117 104 -182.5 251.5t-65.5 321.5zM362 737q0 -109 34 -200t93 -160l580 803q-104 57 -227 57q-100 0 -187.5 -38t-152 -104.5t-102.5 -159t-38 -198.5zM598 285q53 -33 114.5 -50.5t129.5 -17.5q100 0 187 39t151.5 108.5t102.5 164.5t38 208q0 109 -37 200t-102 157z " />
<glyph unicode="&#xd9;" horiz-adv-x="1501" d="M164 522v932h264v-932q0 -147 87 -226t235 -79q147 0 235 80t88 227v930h264v-932q0 -123 -42 -223t-118.5 -172t-185 -112t-239.5 -40q-133 0 -241 40t-185.5 112t-119.5 172t-42 223zM438 1829h269l155 -279h-211z" />
<glyph unicode="&#xda;" horiz-adv-x="1501" d="M164 522v932h264v-932q0 -147 87 -226t235 -79q147 0 235 80t88 227v930h264v-932q0 -123 -42 -223t-118.5 -172t-185 -112t-239.5 -40q-133 0 -241 40t-185.5 112t-119.5 172t-42 223zM637 1550l156 279h268l-215 -279h-209z" />
<glyph unicode="&#xdb;" horiz-adv-x="1501" d="M164 522v932h264v-932q0 -147 87 -226t235 -79q147 0 235 80t88 227v930h264v-932q0 -123 -42 -223t-118.5 -172t-185 -112t-239.5 -40q-133 0 -241 40t-185.5 112t-119.5 172t-42 223zM430 1550l188 279h261l190 -279h-215l-102 166h-4l-103 -166h-215z" />
<glyph unicode="&#xdc;" horiz-adv-x="1501" d="M164 522v932h264v-932q0 -147 87 -226t235 -79q147 0 235 80t88 227v930h264v-932q0 -123 -42 -223t-118.5 -172t-185 -112t-239.5 -40q-133 0 -241 40t-185.5 112t-119.5 172t-42 223zM463 1591v238h201v-238h-201zM840 1591v238h198v-238h-198z" />
<glyph unicode="&#xdd;" horiz-adv-x="1239" d="M4 1454h299l227 -428q18 -35 34 -69.5t28 -62.5t19 -46l7 -17h5q12 31 26 64q12 29 27.5 62.5t34.5 68.5l225 428h299l-483 -846v-608h-265v608zM508 1550l156 279h268l-215 -279h-209z" />
<glyph unicode="&#xde;" horiz-adv-x="1259" d="M184 0v1454h262v-235h297q102 0 187.5 -34t147 -96.5t95 -149.5t33.5 -194q0 -106 -33.5 -194t-95 -150.5t-146.5 -97.5t-188 -35h-297v-268h-262zM446 496h248q117 0 180.5 67.5t63.5 181.5q0 115 -62.5 180.5t-177.5 65.5h-252v-495z" />
<glyph unicode="&#xdf;" horiz-adv-x="1236" d="M143 0v1083q0 96 40 170t106.5 124t151.5 76t175 26q88 0 166 -27t135.5 -75t90 -113.5t32.5 -141.5q0 -70 -28.5 -118t-63.5 -86.5t-63.5 -74.5t-28.5 -81q0 -31 24.5 -56.5t61.5 -54t80 -60.5t80 -71t61.5 -89t24.5 -116q0 -84 -31 -145t-82 -102t-117.5 -61.5 t-138.5 -20.5t-123 8t-86 18q-39 10 -67 27v221q33 -16 69 -27q33 -10 76 -18t92 -8q57 0 101.5 27.5t44.5 95.5q0 35 -24.5 63.5t-61.5 58t-80 59.5t-80 65.5t-61.5 79.5t-24.5 100q0 61 28.5 106t63.5 85t63.5 81t28.5 90q0 53 -43 96t-127 43q-39 0 -75.5 -11 t-65.5 -34.5t-46.5 -59.5t-17.5 -87v-1065h-260z" />
<glyph unicode="&#xe0;" horiz-adv-x="1093" d="M55 301q0 82 34 141.5t88 98.5t123 61.5t137.5 34.5t131 15t105.5 3h35v15q0 102 -57.5 143t-143.5 41q-57 0 -107.5 -16.5t-91.5 -34.5q-47 -23 -88 -49l-98 186q49 35 113 64q53 25 127.5 45t168.5 20q207 0 321 -108.5t114 -307.5v-653h-240v86v28.5t2 22.5q0 10 2 23 h-4l-15 -29q-16 -29 -53.5 -63.5t-99 -63.5t-149.5 -29q-70 0 -134.5 21.5t-113.5 62.5t-78 102.5t-29 139.5zM231 1452h269l155 -278h-211zM317 313q0 -53 39 -94t119 -41q51 0 94 24.5t75 64.5t49.5 89.5t17.5 96.5v24h-45q-49 0 -110.5 -5t-114 -22.5t-88.5 -49.5 t-36 -87z" />
<glyph unicode="&#xe1;" horiz-adv-x="1093" d="M55 301q0 82 34 141.5t88 98.5t123 61.5t137.5 34.5t131 15t105.5 3h35v15q0 102 -57.5 143t-143.5 41q-57 0 -107.5 -16.5t-91.5 -34.5q-47 -23 -88 -49l-98 186q49 35 113 64q53 25 127.5 45t168.5 20q207 0 321 -108.5t114 -307.5v-653h-240v86v28.5t2 22.5q0 10 2 23 h-4l-15 -29q-16 -29 -53.5 -63.5t-99 -63.5t-149.5 -29q-70 0 -134.5 21.5t-113.5 62.5t-78 102.5t-29 139.5zM317 313q0 -53 39 -94t119 -41q51 0 94 24.5t75 64.5t49.5 89.5t17.5 96.5v24h-45q-49 0 -110.5 -5t-114 -22.5t-88.5 -49.5t-36 -87zM428 1174l156 278h268 l-215 -278h-209z" />
<glyph unicode="&#xe2;" horiz-adv-x="1093" d="M55 301q0 82 34 141.5t88 98.5t123 61.5t137.5 34.5t131 15t105.5 3h35v15q0 102 -57.5 143t-143.5 41q-57 0 -107.5 -16.5t-91.5 -34.5q-47 -23 -88 -49l-98 186q49 35 113 64q53 25 127.5 45t168.5 20q207 0 321 -108.5t114 -307.5v-653h-240v86v28.5t2 22.5q0 10 2 23 h-4l-15 -29q-16 -29 -53.5 -63.5t-99 -63.5t-149.5 -29q-70 0 -134.5 21.5t-113.5 62.5t-78 102.5t-29 139.5zM221 1174l189 278h260l190 -278h-215l-102 165h-4l-103 -165h-215zM317 313q0 -53 39 -94t119 -41q51 0 94 24.5t75 64.5t49.5 89.5t17.5 96.5v24h-45 q-49 0 -110.5 -5t-114 -22.5t-88.5 -49.5t-36 -87z" />
<glyph unicode="&#xe3;" horiz-adv-x="1093" d="M55 301q0 82 34 141.5t88 98.5t123 61.5t137.5 34.5t131 15t105.5 3h35v15q0 102 -57.5 143t-143.5 41q-57 0 -107.5 -16.5t-91.5 -34.5q-47 -23 -88 -49l-98 186q49 35 113 64q53 25 127.5 45t168.5 20q207 0 321 -108.5t114 -307.5v-653h-240v86v28.5t2 22.5q0 10 2 23 h-4l-15 -29q-16 -29 -53.5 -63.5t-99 -63.5t-149.5 -29q-70 0 -134.5 21.5t-113.5 62.5t-78 102.5t-29 139.5zM170 1176q0 281 229 280q51 0 86 -20.5t62.5 -46t53.5 -46t56 -20.5q43 0 61.5 39t18.5 88h176q0 -281 -229 -281q-51 0 -86 20.5t-62.5 46.5t-53 46.5 t-56.5 20.5q-43 0 -60.5 -38t-17.5 -89h-178zM317 313q0 -53 39 -94t119 -41q51 0 94 24.5t75 64.5t49.5 89.5t17.5 96.5v24h-45q-49 0 -110.5 -5t-114 -22.5t-88.5 -49.5t-36 -87z" />
<glyph unicode="&#xe4;" horiz-adv-x="1093" d="M55 301q0 82 34 141.5t88 98.5t123 61.5t137.5 34.5t131 15t105.5 3h35v15q0 102 -57.5 143t-143.5 41q-57 0 -107.5 -16.5t-91.5 -34.5q-47 -23 -88 -49l-98 186q49 35 113 64q53 25 127.5 45t168.5 20q207 0 321 -108.5t114 -307.5v-653h-240v86v28.5t2 22.5q0 10 2 23 h-4l-15 -29q-16 -29 -53.5 -63.5t-99 -63.5t-149.5 -29q-70 0 -134.5 21.5t-113.5 62.5t-78 102.5t-29 139.5zM254 1214v238h201v-238h-201zM317 313q0 -53 39 -94t119 -41q51 0 94 24.5t75 64.5t49.5 89.5t17.5 96.5v24h-45q-49 0 -110.5 -5t-114 -22.5t-88.5 -49.5 t-36 -87zM631 1214v238h198v-238h-198z" />
<glyph unicode="&#xe5;" horiz-adv-x="1093" d="M55 301q0 82 34 141.5t88 98.5t123 61.5t137.5 34.5t131 15t105.5 3h35v15q0 102 -57.5 143t-143.5 41q-57 0 -107.5 -16.5t-91.5 -34.5q-47 -23 -88 -49l-98 186q49 35 113 64q53 25 127.5 45t168.5 20q207 0 321 -108.5t114 -307.5v-653h-240v86v28.5t2 22.5q0 10 2 23 h-4l-15 -29q-16 -29 -53.5 -63.5t-99 -63.5t-149.5 -29q-70 0 -134.5 21.5t-113.5 62.5t-78 102.5t-29 139.5zM317 313q0 -53 39 -94t119 -41q51 0 94 24.5t75 64.5t49.5 89.5t17.5 96.5v24h-45q-49 0 -110.5 -5t-114 -22.5t-88.5 -49.5t-36 -87zM346 1309q0 39 16.5 69.5 t44 51t62.5 30.5t72 10t70.5 -10t61 -30.5t44 -51t16.5 -69.5t-16.5 -69t-44 -50.5t-61 -30.5t-70.5 -10t-72 10t-62.5 30.5t-44 50.5t-16.5 69zM471 1309q0 -31 18.5 -50.5t51.5 -19.5q31 0 50 19.5t19 50.5q0 33 -19.5 52t-49.5 19q-31 0 -50.5 -19.5t-19.5 -51.5z" />
<glyph unicode="&#xe6;" horiz-adv-x="1746" d="M55 301q0 80 32 137.5t85 97t118.5 63.5t135.5 36t134.5 16t113.5 4h35v15q0 102 -57.5 143t-145.5 41q-55 0 -106.5 -16.5t-92.5 -34.5q-47 -23 -88 -49l-96 184q47 37 108 66q53 25 127 45t166 20q137 0 216 -41t124 -113h4q125 154 349 154q111 0 196.5 -40 t144 -109.5t88 -162.5t29.5 -200q0 -10 -1 -23.5t-1 -25.5q-2 -14 -2 -31h-715q14 -145 101.5 -212.5t206.5 -67.5q63 0 117.5 16t95.5 39q47 25 86 57l102 -184q-49 -43 -113 -76q-53 -29 -131 -51.5t-176 -22.5q-156 0 -264.5 61.5t-173.5 168.5h-4q-8 -18 -34 -56 t-73 -76t-116.5 -67t-167.5 -29q-72 0 -136.5 21.5t-113.5 63.5t-78 101.5t-29 137.5zM317 313q0 -53 39 -94t121 -41q53 0 96 24.5t74 64.5t48.5 89.5t17.5 98.5v22h-74q-53 0 -109.5 -6t-103.5 -24.5t-78 -50.5t-31 -83zM965 655h450q-4 104 -62.5 157.5t-140.5 53.5 q-98 0 -162.5 -53t-84.5 -158z" />
<glyph unicode="&#xe7;" horiz-adv-x="1118" d="M70 522q0 111 40 210t113.5 174t179 119t234.5 44q102 0 178 -24.5t125 -53.5q57 -35 98 -78l-114 -178q-35 31 -76 56q-35 23 -85 40t-112 17q-72 0 -131 -25.5t-100 -69.5t-63.5 -102.5t-22.5 -126.5q0 -66 22.5 -125t65.5 -104t103.5 -71.5t133.5 -26.5 q66 0 122.5 20.5t97.5 44.5q49 29 88 68l100 -185q-43 -43 -102 -79q-51 -31 -124 -57.5t-171 -31.5l-15 -67q63 -8 106.5 -46t43.5 -110q0 -51 -19.5 -85t-50 -55.5t-70.5 -30.5t-81 -9q-55 0 -88 6q-20 4 -37 8v144q12 -4 26 -8q12 -4 28.5 -6.5t33.5 -2.5q37 0 63.5 12.5 t26.5 45.5q0 29 -28.5 42t-69.5 13q-10 0 -17.5 -1t-13.5 -1q-8 -2 -12 -2l43 160q-109 14 -196 61t-147.5 119t-93 164t-32.5 194z" />
<glyph unicode="&#xe8;" horiz-adv-x="1134" d="M70 522q0 121 38.5 221.5t109.5 173t168 112.5t214 40q113 0 200 -39t145.5 -105.5t88 -156.5t29.5 -195q0 -12 -1 -28.5t-3 -32.5q-2 -18 -2 -39h-721q6 -68 33.5 -120t70.5 -87t96.5 -52t112.5 -17q63 0 117.5 17t95.5 40q47 25 88 57l101 -186q-49 -43 -113 -76 q-53 -29 -131 -51.5t-176 -22.5q-129 0 -233.5 44t-177.5 119t-111.5 174t-38.5 210zM285 1452h268l156 -278h-211zM344 651h457q-4 106 -62.5 161.5t-144.5 55.5q-100 0 -166 -57t-84 -160z" />
<glyph unicode="&#xe9;" horiz-adv-x="1134" d="M70 522q0 121 38.5 221.5t109.5 173t168 112.5t214 40q113 0 200 -39t145.5 -105.5t88 -156.5t29.5 -195q0 -12 -1 -28.5t-3 -32.5q-2 -18 -2 -39h-721q6 -68 33.5 -120t70.5 -87t96.5 -52t112.5 -17q63 0 117.5 17t95.5 40q47 25 88 57l101 -186q-49 -43 -113 -76 q-53 -29 -131 -51.5t-176 -22.5q-129 0 -233.5 44t-177.5 119t-111.5 174t-38.5 210zM344 651h457q-4 106 -62.5 161.5t-144.5 55.5q-100 0 -166 -57t-84 -160zM481 1174l156 278h268l-215 -278h-209z" />
<glyph unicode="&#xea;" horiz-adv-x="1134" d="M70 522q0 121 38.5 221.5t109.5 173t168 112.5t214 40q113 0 200 -39t145.5 -105.5t88 -156.5t29.5 -195q0 -12 -1 -28.5t-3 -32.5q-2 -18 -2 -39h-721q6 -68 33.5 -120t70.5 -87t96.5 -52t112.5 -17q63 0 117.5 17t95.5 40q47 25 88 57l101 -186q-49 -43 -113 -76 q-53 -29 -131 -51.5t-176 -22.5q-129 0 -233.5 44t-177.5 119t-111.5 174t-38.5 210zM274 1174l189 278h260l190 -278h-215l-102 165h-4l-103 -165h-215zM344 651h457q-4 106 -62.5 161.5t-144.5 55.5q-100 0 -166 -57t-84 -160z" />
<glyph unicode="&#xeb;" horiz-adv-x="1134" d="M70 522q0 121 38.5 221.5t109.5 173t168 112.5t214 40q113 0 200 -39t145.5 -105.5t88 -156.5t29.5 -195q0 -12 -1 -28.5t-3 -32.5q-2 -18 -2 -39h-721q6 -68 33.5 -120t70.5 -87t96.5 -52t112.5 -17q63 0 117.5 17t95.5 40q47 25 88 57l101 -186q-49 -43 -113 -76 q-53 -29 -131 -51.5t-176 -22.5q-129 0 -233.5 44t-177.5 119t-111.5 174t-38.5 210zM307 1214v238h201v-238h-201zM344 651h457q-4 106 -62.5 161.5t-144.5 55.5q-100 0 -166 -57t-84 -160zM684 1214v238h199v-238h-199z" />
<glyph unicode="&#xec;" horiz-adv-x="546" d="M-39 1452h268l156 -278h-211zM143 0v1044h260v-1044h-260z" />
<glyph unicode="&#xed;" horiz-adv-x="546" d="M143 0v1044h260v-1044h-260zM160 1174l155 278h269l-215 -278h-209z" />
<glyph unicode="&#xee;" horiz-adv-x="546" d="M-47 1174l188 278h260l191 -278h-215l-103 165h-4l-102 -165h-215zM143 0v1044h260v-1044h-260z" />
<glyph unicode="&#xef;" horiz-adv-x="546" d="M-14 1214v238h200v-238h-200zM143 0v1044h260v-1044h-260zM362 1214v238h199v-238h-199z" />
<glyph unicode="&#xf0;" horiz-adv-x="1198" d="M68 485q0 90 31.5 175t93 149.5t151.5 103.5t205 39q49 0 87 -10t66 -20q31 -12 56 -29h4q-59 131 -193 217l-379 -164l-12 154l228 100q-57 29 -118 48.5t-118 33.5l72 205q117 -27 230.5 -69t211.5 -101l303 129l12 -152l-180 -80q127 -111 204 -270.5t77 -374.5 q0 -104 -29 -209.5t-92.5 -191.5t-164.5 -139.5t-247 -53.5q-121 0 -213 43t-156.5 115t-97 163t-32.5 189zM330 479q0 -53 14 -104t45 -91t77 -64.5t107 -24.5q72 0 122 29.5t82 76.5t46.5 105.5t14.5 115.5q0 98 -64.5 163t-177.5 65q-68 0 -118 -22.5t-83 -60.5 t-49 -87.5t-16 -100.5z" />
<glyph unicode="&#xf1;" horiz-adv-x="1255" d="M143 0v1044h250v-120q0 -16 -1 -28.5t-1 -23.5q-2 -10 -2 -20h4q16 33 47 71t76 70.5t106.5 54t141.5 21.5q174 0 268 -94t94 -303v-672h-258v618q0 47 -7 87t-25.5 68t-51 43t-82.5 15q-104 0 -177.5 -59t-102.5 -154q-10 -33 -14.5 -67.5t-4.5 -71.5v-479h-260z M276 1176q0 281 230 280q51 0 86 -20.5t62.5 -46t53 -46t56.5 -20.5q43 0 61.5 39t18.5 88h176q0 -281 -229 -281q-51 0 -86 20.5t-63 46.5t-53.5 46.5t-56.5 20.5q-43 0 -60 -38t-17 -89h-179z" />
<glyph unicode="&#xf2;" d="M66 522q0 119 45 220.5t122.5 173t182 112.5t223.5 41t224.5 -41t183 -112.5t122.5 -173t45 -220.5q0 -121 -45 -221t-122.5 -173t-182 -113t-223.5 -40q-121 0 -225.5 40t-182 113t-122.5 173t-45 221zM328 1452h268l156 -278h-211zM330 522q0 -74 24.5 -133t67.5 -102 t99.5 -66.5t119.5 -23.5t119.5 23.5t98.5 66.5t66.5 102.5t24.5 132.5q0 72 -24.5 132.5t-66.5 103.5t-98 66.5t-120 23.5q-63 0 -119.5 -23.5t-99.5 -66.5t-67.5 -103.5t-24.5 -132.5z" />
<glyph unicode="&#xf3;" d="M66 522q0 119 45 220.5t122.5 173t182 112.5t223.5 41t224.5 -41t183 -112.5t122.5 -173t45 -220.5q0 -121 -45 -221t-122.5 -173t-182 -113t-223.5 -40q-121 0 -225.5 40t-182 113t-122.5 173t-45 221zM330 522q0 -74 24.5 -133t67.5 -102t99.5 -66.5t119.5 -23.5 t119.5 23.5t98.5 66.5t66.5 102.5t24.5 132.5q0 72 -24.5 132.5t-66.5 103.5t-98 66.5t-120 23.5q-63 0 -119.5 -23.5t-99.5 -66.5t-67.5 -103.5t-24.5 -132.5zM528 1174l156 278h268l-215 -278h-209z" />
<glyph unicode="&#xf4;" d="M66 522q0 119 45 220.5t122.5 173t182 112.5t223.5 41t224.5 -41t183 -112.5t122.5 -173t45 -220.5q0 -121 -45 -221t-122.5 -173t-182 -113t-223.5 -40q-121 0 -225.5 40t-182 113t-122.5 173t-45 221zM322 1174l188 278h260l191 -278h-216l-102 165h-4l-102 -165h-215z M330 522q0 -74 24.5 -133t67.5 -102t99.5 -66.5t119.5 -23.5t119.5 23.5t98.5 66.5t66.5 102.5t24.5 132.5q0 72 -24.5 132.5t-66.5 103.5t-98 66.5t-120 23.5q-63 0 -119.5 -23.5t-99.5 -66.5t-67.5 -103.5t-24.5 -132.5z" />
<glyph unicode="&#xf5;" d="M66 522q0 119 45 220.5t122.5 173t182 112.5t223.5 41t224.5 -41t183 -112.5t122.5 -173t45 -220.5q0 -121 -45 -221t-122.5 -173t-182 -113t-223.5 -40q-121 0 -225.5 40t-182 113t-122.5 173t-45 221zM268 1176q0 281 230 280q51 0 85.5 -20.5t62.5 -46t53.5 -46 t56.5 -20.5q43 0 61.5 39t18.5 88h176q0 -281 -230 -281q-51 0 -85.5 20.5t-62.5 46.5t-53.5 46.5t-56.5 20.5q-43 0 -60.5 -38t-17.5 -89h-178zM330 522q0 -74 24.5 -133t67.5 -102t99.5 -66.5t119.5 -23.5t119.5 23.5t98.5 66.5t66.5 102.5t24.5 132.5q0 72 -24.5 132.5 t-66.5 103.5t-98 66.5t-120 23.5q-63 0 -119.5 -23.5t-99.5 -66.5t-67.5 -103.5t-24.5 -132.5z" />
<glyph unicode="&#xf6;" d="M66 522q0 119 45 220.5t122.5 173t182 112.5t223.5 41t224.5 -41t183 -112.5t122.5 -173t45 -220.5q0 -121 -45 -221t-122.5 -173t-182 -113t-223.5 -40q-121 0 -225.5 40t-182 113t-122.5 173t-45 221zM330 522q0 -74 24.5 -133t67.5 -102t99.5 -66.5t119.5 -23.5 t119.5 23.5t98.5 66.5t66.5 102.5t24.5 132.5q0 72 -24.5 132.5t-66.5 103.5t-98 66.5t-120 23.5q-63 0 -119.5 -23.5t-99.5 -66.5t-67.5 -103.5t-24.5 -132.5zM352 1214v238h201v-238h-201zM729 1214v238h199v-238h-199z" />
<glyph unicode="&#xf7;" d="M106 483v203h1068v-203h-1068zM522 55v221h234v-221h-234zM522 895v221h234v-221h-234z" />
<glyph unicode="&#xf8;" d="M66 522q0 119 45 220.5t122.5 173t182 112.5t223.5 41q147 0 274 -63l82 114l113 -78l-80 -112q86 -72 136 -176.5t50 -231.5q0 -121 -45 -221t-122.5 -173t-182 -113t-223.5 -40q-72 0 -136.5 14.5t-123.5 39.5l-84 -117l-113 80l80 110q-92 72 -145 179.5t-53 240.5z M330 522q0 -131 78 -221l368 514q-66 33 -135 33q-63 0 -119.5 -23.5t-99.5 -66.5t-67.5 -103.5t-24.5 -132.5zM518 221q57 -25 123 -24q63 0 119.5 23.5t98.5 66.5t66.5 102t24.5 133q0 121 -67 207z" />
<glyph unicode="&#xf9;" horiz-adv-x="1247" d="M129 373v671h260v-618q0 -96 33 -154.5t129 -58.5q70 0 125 28.5t92 78t56.5 113t19.5 132.5v479h260v-1044h-250v119v28.5t2 22.5q0 10 2 23h-4q-18 -41 -53 -80t-81 -70t-103.5 -49.5t-124.5 -18.5q-168 0 -265.5 92.5t-97.5 305.5zM305 1452h268l156 -278h-211z" />
<glyph unicode="&#xfa;" horiz-adv-x="1247" d="M129 373v671h260v-618q0 -96 33 -154.5t129 -58.5q70 0 125 28.5t92 78t56.5 113t19.5 132.5v479h260v-1044h-250v119v28.5t2 22.5q0 10 2 23h-4q-18 -41 -53 -80t-81 -70t-103.5 -49.5t-124.5 -18.5q-168 0 -265.5 92.5t-97.5 305.5zM504 1174l155 278h269l-215 -278 h-209z" />
<glyph unicode="&#xfb;" horiz-adv-x="1247" d="M129 373v671h260v-618q0 -96 33 -154.5t129 -58.5q70 0 125 28.5t92 78t56.5 113t19.5 132.5v479h260v-1044h-250v119v28.5t2 22.5q0 10 2 23h-4q-18 -41 -53 -80t-81 -70t-103.5 -49.5t-124.5 -18.5q-168 0 -265.5 92.5t-97.5 305.5zM297 1174l188 278h260l191 -278 h-215l-103 165h-4l-102 -165h-215z" />
<glyph unicode="&#xfc;" horiz-adv-x="1247" d="M129 373v671h260v-618q0 -96 33 -154.5t129 -58.5q70 0 125 28.5t92 78t56.5 113t19.5 132.5v479h260v-1044h-250v119v28.5t2 22.5q0 10 2 23h-4q-18 -41 -53 -80t-81 -70t-103.5 -49.5t-124.5 -18.5q-168 0 -265.5 92.5t-97.5 305.5zM330 1214v238h200v-238h-200z M707 1214v238h198v-238h-198z" />
<glyph unicode="&#xfd;" horiz-adv-x="1067" d="M-16 1044h292l220 -602q8 -23 14 -46l12 -46q6 -25 13 -49h4q4 25 10 47q4 20 10 44t14 46l205 606h285l-467 -1202q-55 -143 -156.5 -207.5t-220.5 -64.5q-47 0 -87 10t-69 23q-35 14 -61 35l86 194q16 -14 37 -22q16 -8 36.5 -14.5t43.5 -6.5q53 0 102 33t78 102l39 92 zM424 1174l156 278h268l-215 -278h-209z" />
<glyph unicode="&#xfe;" horiz-adv-x="1249" d="M143 -410v1864h260v-446q0 -20 -1 -36t-1 -26q-2 -12 -2 -24h4q14 18 38 43.5t61 48t89 39t120 16.5q106 0 193 -41t148.5 -114.5t94.5 -174t33 -217.5q0 -119 -35 -219t-97.5 -173t-149.5 -114t-191 -41q-86 0 -143.5 21.5t-92.5 48.5q-41 31 -68 72h-4q0 -10 2 -25 q0 -12 1 -28.5t1 -36.5v-437h-260zM395 520q0 -154 73 -239.5t191 -85.5q55 0 103.5 24.5t82.5 67.5t53.5 103.5t19.5 131.5q0 70 -18.5 130.5t-52.5 103.5t-81 67.5t-104 24.5q-53 0 -101.5 -17.5t-85.5 -56.5t-58.5 -101.5t-21.5 -152.5z" />
<glyph unicode="&#xff;" horiz-adv-x="1067" d="M-16 1044h292l220 -602q8 -23 14 -46l12 -46q6 -25 13 -49h4q4 25 10 47q4 20 10 44t14 46l205 606h285l-467 -1202q-55 -143 -156.5 -207.5t-220.5 -64.5q-47 0 -87 10t-69 23q-35 14 -61 35l86 194q16 -14 37 -22q16 -8 36.5 -14.5t43.5 -6.5q53 0 102 33t78 102l39 92 zM250 1214v238h201v-238h-201zM627 1214v238h198v-238h-198z" />
<glyph unicode="&#x152;" horiz-adv-x="1982" d="M82 729q0 156 58.5 292t162 235.5t242.5 156.5t301 57q86 0 142 -8t116 -8h758v-227h-609v-381h492v-228h-492v-391h641v-227h-790q-29 0 -56.5 -3t-58.5 -6t-65.5 -6t-77.5 -3q-162 0 -301 58t-242.5 158.5t-162 236.5t-58.5 294zM354 729q0 -109 37 -204t102.5 -165.5 t155.5 -110.5t197 -40q63 0 104 6q23 4 41 8v1008q-18 2 -41 6q-20 4 -46.5 6t-57.5 2q-106 0 -196.5 -40t-156 -110.5t-102.5 -165t-37 -200.5z" />
<glyph unicode="&#x153;" horiz-adv-x="2015" d="M68 520q0 123 44 224.5t120.5 173t180 111.5t220.5 40q154 0 258 -58.5t174 -156.5h4q61 98 160.5 156.5t251.5 58.5q113 0 199.5 -39t145 -105.5t88.5 -156.5t30 -195q0 -12 -1 -28.5t-4 -32.5q-2 -18 -2 -39h-718q16 -141 105 -208.5t206 -67.5q63 0 117.5 17t95.5 40 q47 25 88 57l100 -186q-49 -43 -112 -76q-53 -29 -131 -51.5t-177 -22.5q-164 0 -268 61.5t-168 160.5h-4q-70 -98 -176.5 -160t-261.5 -62q-117 0 -220.5 39t-180 110t-120.5 172t-44 224zM330 520q0 -74 24.5 -134t67.5 -102t99.5 -64.5t119.5 -22.5t119.5 22.5t98.5 64.5 t66.5 102t24.5 136q0 74 -24.5 134.5t-67.5 103.5t-99.5 65.5t-117.5 22.5q-63 0 -119.5 -23.5t-99.5 -66.5t-67.5 -103.5t-24.5 -134.5zM1225 651h456q-4 104 -60 160.5t-142 56.5q-102 0 -169 -57t-85 -160z" />
<glyph unicode="&#x178;" horiz-adv-x="1239" d="M4 1454h299l227 -428q18 -35 34 -69.5t28 -62.5t19 -46l7 -17h5q12 31 26 64q12 29 27.5 62.5t34.5 68.5l225 428h299l-483 -846v-608h-265v608zM334 1591v238h201v-238h-201zM711 1591v238h198v-238h-198z" />
<glyph unicode="&#x2c6;" horiz-adv-x="1011" d="M186 1550l189 279h260l190 -279h-215l-102 166h-4l-103 -166h-215z" />
<glyph unicode="&#x2dc;" horiz-adv-x="1009" d="M133 1552q0 281 229 281q51 0 86 -20.5t63 -46t53.5 -46t56.5 -20.5q43 0 61 39t18 88h177q0 -281 -230 -281q-51 0 -86 20.5t-62.5 46t-53 46t-56.5 20.5q-43 0 -60.5 -37.5t-17.5 -89.5h-178z" />
<glyph unicode="&#x2000;" horiz-adv-x="923" />
<glyph unicode="&#x2001;" horiz-adv-x="1847" />
<glyph unicode="&#x2002;" horiz-adv-x="923" />
<glyph unicode="&#x2003;" horiz-adv-x="1847" />
<glyph unicode="&#x2004;" horiz-adv-x="615" />
<glyph unicode="&#x2005;" horiz-adv-x="461" />
<glyph unicode="&#x2006;" horiz-adv-x="307" />
<glyph unicode="&#x2007;" horiz-adv-x="307" />
<glyph unicode="&#x2008;" horiz-adv-x="230" />
<glyph unicode="&#x2009;" horiz-adv-x="369" />
<glyph unicode="&#x200a;" horiz-adv-x="102" />
<glyph unicode="&#x2010;" horiz-adv-x="935" d="M160 471v227h616v-227h-616z" />
<glyph unicode="&#x2011;" horiz-adv-x="935" d="M160 471v227h616v-227h-616z" />
<glyph unicode="&#x2012;" horiz-adv-x="935" d="M160 471v227h616v-227h-616z" />
<glyph unicode="&#x2013;" horiz-adv-x="1452" d="M160 483v203h1132v-203h-1132z" />
<glyph unicode="&#x2014;" horiz-adv-x="1861" d="M160 483v203h1542v-203h-1542z" />
<glyph unicode="&#x2018;" horiz-adv-x="485" d="M82 1032l154 447h182l-96 -447h-240z" />
<glyph unicode="&#x2019;" horiz-adv-x="473" d="M90 1030l96 449h240l-152 -449h-184z" />
<glyph unicode="&#x201a;" horiz-adv-x="512" d="M66 -182l96 446h233l-153 -446h-176z" />
<glyph unicode="&#x201c;" horiz-adv-x="821" d="M82 1032l154 447h184l-98 -447h-240zM418 1032l151 447h185l-97 -447h-239z" />
<glyph unicode="&#x201d;" horiz-adv-x="808" d="M90 1030l96 449h242l-154 -449h-184zM426 1030l96 449h240l-152 -449h-184z" />
<glyph unicode="&#x201e;" horiz-adv-x="837" d="M66 -182l96 446h233l-153 -446h-176zM393 -182l96 446h232l-152 -446h-176z" />
<glyph unicode="&#x2022;" horiz-adv-x="851" d="M84 596q0 70 26.5 132.5t73.5 109.5t108.5 73.5t133.5 26.5t134.5 -26.5t108.5 -73.5t72.5 -109.5t26.5 -132.5q0 -72 -26.5 -133.5t-72.5 -108.5t-108.5 -73.5t-134.5 -26.5t-133.5 26.5t-108.5 73.5t-73.5 108.5t-26.5 133.5z" />
<glyph unicode="&#x2026;" horiz-adv-x="1683" d="M133 0v260h250v-260h-250zM715 0v260h252v-260h-252zM1298 0v260h252v-260h-252z" />
<glyph unicode="&#x202f;" horiz-adv-x="369" />
<glyph unicode="&#x2039;" horiz-adv-x="737" d="M72 578l336 421h247l-336 -421l336 -420h-247z" />
<glyph unicode="&#x203a;" horiz-adv-x="737" d="M82 158l336 420l-336 421h248l336 -421l-336 -420h-248z" />
<glyph unicode="&#x205f;" horiz-adv-x="461" />
<glyph unicode="&#x20ac;" horiz-adv-x="1206" d="M63 512v156h115q-4 25 -5 60.5t3 66.5h-113v157h142q33 115 99.5 212.5t157.5 167t203.5 108.5t239.5 39q43 0 83 -5.5t71 -9.5q37 -6 65 -12l-63 -240q-23 4 -49 11q-23 4 -52.5 7t-60.5 3q-147 0 -254.5 -76t-157.5 -205h523l-31 -157h-528q-4 -29 -3 -63t5 -64h499 l-30 -156h-424q49 -131 159.5 -209t251.5 -78q39 0 73 4t60 11q31 6 56 14l49 -242q-33 -10 -70 -18q-33 -8 -77 -13.5t-95 -5.5q-131 0 -245.5 39t-204.5 110t-154.5 170t-95.5 218h-142z" />
<glyph unicode="&#x2122;" horiz-adv-x="1937" d="M37 1282v172h801v-172h-301v-735h-197v735h-303zM893 547l72 907h182l186 -428q4 -14 10.5 -28.5t10.5 -26.5q6 -14 8 -31h4q4 16 8 31q4 12 8 26.5t11 28.5l188 428h180l70 -907h-195l-34 467q-2 10 -1 21.5t1 21.5t2 20h-5l-159 -364h-154l-160 364h-4q2 -10 2 -20v-43 l-37 -467h-194z" />
<glyph unicode="&#xe000;" horiz-adv-x="1044" d="M0 0v1044h1044v-1044h-1044z" />
</font>
</defs>
</svg>
